<svg xmlns="http://www.w3.org/2000/svg" width="102.235" height="102.143" viewBox="0 0 102.235 102.143">
  <g id="Group_1" data-name="Group 1" transform="translate(-14.15 -5.045)">
    <path id="Path_2" data-name="Path 2" d="M93.584,13.622a47.519,47.519,0,0,1,11.2,10.072A49.081,49.081,0,0,1,116.023,49.95c1.936,17.905-3.91,32.927-17.306,44.883A48.7,48.7,0,0,1,71.586,106.89a49.057,49.057,0,0,1-32.318-6.721C25,91.464,16.515,78.777,14.545,62.1c-1.9-16.044,3.068-29.938,14.133-41.629A48.024,48.024,0,0,1,45.672,9.028c1.085-.374,2.039-.77,2.993-1.166a.894.894,0,0,1,.4-.112A14.86,14.86,0,0,0,50.712,7.2s.05.075.092.056c.231-.1.42-.175.609-.253a.882.882,0,0,1,.414-.081A1.822,1.822,0,0,0,52.379,7q4.19-.728,8.376-1.48c.149-.027.275-.185.412-.283a3.869,3.869,0,0,1,.841,0c2.289.028,4.42,0,6.552-.036a3.02,3.02,0,0,1,.8.086c.212.135.3.216.394.232,2.151.363,4.3.731,6.455,1.071.837.132,1.684.2,2.526.293A.8.8,0,0,1,79.127,7a3.148,3.148,0,0,0,.775.218.192.192,0,0,1,.138.081c.954.339,1.838.6,2.722.852a1.253,1.253,0,0,1,.431.192c1.107.493,2.129.885,3.151,1.276,0,0,.013-.007.052.04a.754.754,0,0,0,.242.095.051.051,0,0,0,.014.075,3.656,3.656,0,0,0,.411.12s-.041.056.013.087a4.235,4.235,0,0,0,.413.126s-.05.08.011.1l.448.132a.163.163,0,0,1,.119.1,9.746,9.746,0,0,0,1.275.593s-.005,0,.032.063c.6.349,1.154.638,1.712.928,0,0-.045.068,0,.1.3.15.553.264.805.378,0,0-.011.014.01.074.5.51.823,1.221,1.68.987M62.409,43.062s-.021,0,.072,0c.024-.075.047-.151.114-.353a2.694,2.694,0,0,1,.34-.556c.312-.695.358-1.3-.641-1.656-.164-.131-.329-.263-.57-.471a.45.45,0,0,1-.164-.085s0,.038-.1-.088c-.509-.175-1.03-.408-1.424.368-.093.051-.186.1-.389.2a.638.638,0,0,1-.135.175s.025.017-.143.024a9.262,9.262,0,0,1-1.6.339c-1.289.05-2.582-.007-3.872.032a5.275,5.275,0,0,0-1.15.358.438.438,0,0,1-.306-.1,5.017,5.017,0,0,1-.369.382s.021,0-.069.054a1,1,0,0,0,.2.367c.053.044.087.1.072.272a10.089,10.089,0,0,0,1.694.325c1.741.043,3.484.015,5.279.137a5.778,5.778,0,0,0,.517.367,2.88,2.88,0,0,1,.6.52c.728.387,1.4.541,1.82-.4,0,0-.025,0,.082-.05a1.1,1.1,0,0,1,.143-.159m-22,4.362c.057.109.115.218.215.4,0,0,0,.082-.012.258.18.416.36.831.559,1.266,0,0-.01.027-.052.156.1.127.2.253.316.373a1.174,1.174,0,0,0,.07.166c1.008.06,2.016.129,3.026.161.086,0,.18-.254.286-.552a2.477,2.477,0,0,0-.067-.411Q41.5,39.646,38.24,30.055a1.034,1.034,0,0,0-1.138-.814c-2.867-.032-2.862-.054-3.8,2.681-1.879,5.487-3.765,10.972-5.783,16.508-.327.465-.81.924-.053,1.433a1.408,1.408,0,0,0,.061.163c.975.061,1.949.143,2.925.156.133,0,.27-.344.4-.527,0,0,0,0,.061-.075a.325.325,0,0,0-.016-.255s.044-.047.2-.037c.477-1.525.953-3.051,1.424-4.648a1.376,1.376,0,0,1,.119-.167c.03-.127.06-.254.09-.464,0,0,.043-.072.24-.077,2.111,0,4.222.009,6.376.092,0,0,0,.089-.016.262.175.428.35.856.495,1.332,0,0,.021-.053-.02.1a2.016,2.016,0,0,1,.21.534s.036-.046.012.091a3.4,3.4,0,0,0,.226.377.838.838,0,0,0-.03.192,2.932,2.932,0,0,1,.173.4s.018-.013.013.113m9.669-13.141a1.057,1.057,0,0,0,.3.534c1.976.017,3.953.062,5.928.023a1.449,1.449,0,0,0,.984-.59c.781-1.131,1.488-2.314,2.215-3.482a1.92,1.92,0,0,1,3.332-.157,2.1,2.1,0,0,0,3.084.35,2.067,2.067,0,0,0,.133-3.019,1.945,1.945,0,0,0-2.984.023,2.166,2.166,0,0,1-2.331.972,1.547,1.547,0,0,0-1.679.948c-.766,1.3-1.636,2.537-2.576,3.9a1.594,1.594,0,0,1-.338.258,1.1,1.1,0,0,1-.411-.159c-1.694-.035-3.387-.081-5.081-.084-.162,0-.324.279-.491.408,0,0,.02,0-.081.078m24.3,60.455a3.3,3.3,0,0,0,.408-.342,3.531,3.531,0,0,0-.742-6.3,3.224,3.224,0,0,0-1.859-5.806c-1.551,0-3.1.007-4.768,0-.038,0-.077,0-.218.146a2.647,2.647,0,0,0-.1.51q-.01,5.522,0,11.044a4.407,4.407,0,0,0,.2.893.41.41,0,0,0,.147.209c2.018.034,4.036.086,6.053.081.258,0,.514-.294.768-.417,0,0-.034-.007.105-.011M84.844,74.815s.024.049.132-.077c.045-.891.088-1.782.137-2.672.064-1.156-.433-2.455.988-3.408a20.565,20.565,0,0,1,.108-2.128.326.326,0,0,0,.031-.1.178.178,0,0,0-.034-.091c-1.078.2-1.2-.431-1.1-1.257a3.381,3.381,0,0,0,.09-.822c-.03-.218-.213-.414-.472-.714H82.037v3.023l-1.373.094v2.117l1.478.155c0,1.857,0,3.682-.038,5.69.166.149.324.416.5.427.682.043,1.369.006,2.163-.02a.446.446,0,0,1,.078-.219m-19.489.253c.644-.008,1.288-.015,2.1,0,.109-.065.313-.132.312-.195a53.732,53.732,0,0,0-.183-6.1,2.683,2.683,0,0,0-3.56-2.053,14.418,14.418,0,0,0-1.9.835V60.914c-1.008.136-1.886.255-2.883.355a1.616,1.616,0,0,0-.2.521c-.011,3.793-.016,7.587.006,11.38a3.488,3.488,0,0,0,.357,1.052c.015.069,0,.132-.127.234l-.107.138a.158.158,0,0,1,.239.019c.086.17.172.339.311.638a10.877,10.877,0,0,0,2.468-.4c0-.6-.007-1.195,0-1.792.006-.843-.041-1.693.049-2.527a1.659,1.659,0,0,1,1.3-1.6c.73-.156,1.215.191,1.482,1.058.03,1.639.061,3.279.045,4.966.015.055.049.074.288.119m5.8-19.016a2.488,2.488,0,0,0,.357.033,1.076,1.076,0,0,1,.311.192c.194-.035.388-.07.739-.16.845.111,1.179-.324,1.331-1.108.212-1.1.525-2.171.791-3.238a30.805,30.805,0,0,0,21.7,0c.26,1.051.507,2.038.747,3.027.312,1.287.832,1.605,2.108,1.265a2.62,2.62,0,0,0,.789-.405,3.35,3.35,0,0,0,.114-.615q.01-14.085-.007-28.169a3.262,3.262,0,0,0-.388-1.061c-1-2.3-3.074-3.246-5.239-3.913a30.1,30.1,0,0,0-17.985,0,8.893,8.893,0,0,0-5.258,3.662.814.814,0,0,0-.146.278,1.355,1.355,0,0,1-.123.243,4.624,4.624,0,0,0-.083.623q-.007,14.165.007,28.331a6,6,0,0,0,.222.958s.019-.038.017.061M53.279,37.761c-.148.667.284.667.745.665,1.41-.007,2.823-.053,4.231.009,2,.088,3.942.056,5.6-1.293.038-.031.126,0,.2,0a5.178,5.178,0,0,0,.431.593,2.021,2.021,0,0,0,2.411.51,1.944,1.944,0,0,0,1.221-2.129,1.977,1.977,0,0,0-1.652-1.834,1.83,1.83,0,0,0-2.21,1.046,3,3,0,0,1-2.117,1.627c-1.28.134-2.557.321-3.841.388s-2.6,0-3.9.028a2.428,2.428,0,0,0-1.113.385m-4.04-3.078a.916.916,0,0,1,.121-.357c-.028-.118-.056-.236-.126-.493a1.222,1.222,0,0,1,.158-.422c-.055-1.291-.11-2.582-.276-3.981-1.086-.032-2.172-.065-3.418,0a4.834,4.834,0,0,0-.213,1q-.02,9.2.005,18.4A2.054,2.054,0,0,0,46,49.888c1.041-.015,2.083-.029,3.282-.14a4.946,4.946,0,0,0,.209-1q.022-6.461,0-12.921a5.49,5.49,0,0,0-.254-1.144m27.077,32.21-.156.705c-2.179-1.4-4.223-1.26-5.695.344a4.5,4.5,0,0,0-.234,5.742c1.377,1.765,3.433,2.029,5.87.753.363.735,1.675.921,3.121.332.042-2.6.087-5.2.111-7.8,0-.052-.242-.106-.482-.163-.036-.01-.072-.02-.175-.176a1.944,1.944,0,0,0-2.36.262M56.006,95.111c1.152.032,2.3.092,3.457.081a3.981,3.981,0,0,0,1.173-.38,6.158,6.158,0,0,0,4.987-6.531,6.021,6.021,0,0,0-5.2-5.9,21.03,21.03,0,0,0-3.649.1c-.372.013-.745,0-1.176,0,0,4.105,0,8.051.011,12,0,.177.168.354.4.632m-3.09-22.766c-.033.014-.064.03-.1.04A3.617,3.617,0,0,1,48.2,70.51a3.978,3.978,0,0,1,1.314-5.067,3.619,3.619,0,0,1,4.847.774,1.039,1.039,0,0,0,.571.38c.889.041,1.78.018,2.721.018A6.52,6.52,0,0,0,45,69.384a6.591,6.591,0,0,0,6.309,5.9c2.842.1,5.821-2,6.248-4.5-1.343.126-2.827-.549-3.788,1.028-.132.217-.459.315-.853.533m4.822-26.767a7,7,0,0,1,1.2.948c1.324,1.61,2.724,2.99,5.023,2.214.209.367.328.625.491.851a2.039,2.039,0,0,0,2.31.867A2.093,2.093,0,0,0,68.283,48.4a1.932,1.932,0,0,0-1.4-1.918,1.9,1.9,0,0,0-2.4.806c-.353.646-.807.683-1.431.745a2.684,2.684,0,0,1-2.627-1.148,9.782,9.782,0,0,0-1.54-1.593,2.1,2.1,0,0,0-1.185-.5c-2.149-.048-4.3-.039-6.45,0-.306.005-.607.264-.91.405a3.179,3.179,0,0,0,.974.362C53.392,45.593,55.472,45.578,57.738,45.579Z" transform="translate(0 -0.124)" fill="#bffe72"/>
    <path id="Path_3" data-name="Path 3" d="M284.359,7.238c-.773-.058-1.62-.124-2.457-.256-2.154-.34-4.3-.708-6.455-1.071a.732.732,0,0,1-.311-.212C278.162,6.156,281.226,6.678,284.359,7.238Z" transform="translate(-205.689 -0.516)" fill="#a5cf72"/>
    <path id="Path_4" data-name="Path 4" d="M201.5,5.3a.5.5,0,0,1-.32.3q-4.185.756-8.376,1.48A1.218,1.218,0,0,1,192.326,7C195.31,6.4,198.359,5.843,201.5,5.3Z" transform="translate(-140.424 -0.203)" fill="#a5cf72"/>
    <path id="Path_5" data-name="Path 5" d="M246.81,5.047c-2.052.063-4.183.095-6.387.081C242.477,5.059,244.6,5.037,246.81,5.047Z" transform="translate(-178.33)" fill="#a5cf72"/>
    <path id="Path_6" data-name="Path 6" d="M343.276,21.409c-.972-.34-1.993-.732-3.055-1.184C341.2,20.561,342.211,20.959,343.276,21.409Z" transform="translate(-256.983 -11.964)" fill="#a5cf72"/>
    <path id="Path_7" data-name="Path 7" d="M327.882,15.993c-.822-.212-1.706-.469-2.634-.786C326.076,15.414,326.948,15.682,327.882,15.993Z" transform="translate(-245.182 -8.009)" fill="#a5cf72"/>
    <path id="Path_8" data-name="Path 8" d="M166.121,17.745c-.881.4-1.834.8-2.844,1.159C164.163,18.494,165.106,18.118,166.121,17.745Z" transform="translate(-117.53 -10.009)" fill="#a5cf72"/>
    <path id="Path_9" data-name="Path 9" d="M382.774,41.184c-.817.292-1.145-.419-1.637-.937A14.732,14.732,0,0,1,382.774,41.184Z" transform="translate(-289.229 -27.744)" fill="#a5cf72"/>
    <path id="Path_10" data-name="Path 10" d="M370.848,34.144a16.845,16.845,0,0,1-1.672-.873A16.888,16.888,0,0,1,370.848,34.144Z" transform="translate(-279.803 -22.245)" fill="#a5cf72"/>
    <path id="Path_11" data-name="Path 11" d="M180.779,14.658a11.8,11.8,0,0,1-1.492.537A11.786,11.786,0,0,1,180.779,14.658Z" transform="translate(-130.147 -7.576)" fill="#a5cf72"/>
    <path id="Path_12" data-name="Path 12" d="M364.337,30.822a6.113,6.113,0,0,1-1.207-.509A6.115,6.115,0,0,1,364.337,30.822Z" transform="translate(-275.038 -19.914)" fill="#a5cf72"/>
    <path id="Path_13" data-name="Path 13" d="M378.125,38.352a2.572,2.572,0,0,1-.744-.354A2.57,2.57,0,0,1,378.125,38.352Z" transform="translate(-286.269 -25.971)" fill="#a5cf72"/>
    <path id="Path_14" data-name="Path 14" d="M321.772,14a1.662,1.662,0,0,1-.669-.127A1.661,1.661,0,0,1,321.772,14Z" transform="translate(-241.915 -6.954)" fill="#a5cf72"/>
    <path id="Path_15" data-name="Path 15" d="M187.6,13.67a1.83,1.83,0,0,1-.571.219A1.827,1.827,0,0,1,187.6,13.67Z" transform="translate(-136.249 -6.797)" fill="#a5cf72"/>
    <path id="Path_16" data-name="Path 16" d="M356.751,27a.552.552,0,0,1-.361-.094A.552.552,0,0,1,356.751,27Z" transform="translate(-269.726 -17.224)" fill="#a5cf72"/>
    <path id="Path_17" data-name="Path 17" d="M360.826,29a.615.615,0,0,1-.385-.118A.614.614,0,0,1,360.826,29Z" transform="translate(-272.918 -18.78)" fill="#a5cf72"/>
    <path id="Path_18" data-name="Path 18" d="M358.8,27.984a.534.534,0,0,1-.353-.1A.534.534,0,0,1,358.8,27.984Z" transform="translate(-271.343 -17.994)" fill="#a5cf72"/>
    <path id="Path_19" data-name="Path 19" d="M355.347,26.263c-.037.031-.1.015-.208-.041C355.174,26.194,355.246,26.205,355.347,26.263Z" transform="translate(-268.74 -16.679)" fill="#a5cf72"/>
    <path id="Path_20" data-name="Path 20" d="M282.841,82.924a.642.642,0,0,1,.092-.17c.1-.14.138-.206.177-.271a8.615,8.615,0,0,1,5.168-3.594,30.1,30.1,0,0,1,17.985,0c2.165.667,4.241,1.609,5.288,4.07a11.736,11.736,0,0,1,.105,1.42q.01,14.2.013,28.4a5.973,5.973,0,0,1-.677.269c-1.276.34-1.8.022-2.108-1.265-.24-.989-.487-1.977-.747-3.027a30.805,30.805,0,0,1-21.7,0c-.266,1.068-.578,2.143-.791,3.238a1.173,1.173,0,0,1-1.492,1.115c-.331.021-.5.036-.67.051-.073-.03-.146-.06-.309-.122a.762.762,0,0,0-.264-.1s-.019.038,0-.053c.022-7.2.029-14.313.015-21.423-.006-2.848-.06-5.7-.092-8.545m28.116,11.422a2.864,2.864,0,0,1-.109-.37c-.033-.285-.066-.57-.1-.9-4.052,3.167-8.725,3.784-13.5,3.778s-9.431-.625-13.519-3.845c0,1.307.071,2.461-.016,3.6a3.769,3.769,0,0,0,2.156,3.8,14.045,14.045,0,0,0,1.8.891,28.143,28.143,0,0,0,13.763,1.371,17.885,17.885,0,0,0,7.322-2.287,3.722,3.722,0,0,0,2.1-3.7,11.7,11.7,0,0,1,.111-2.341m-12.18,1.66c.526-.05,1.053-.1,1.579-.152,2.894-.309,5.769-.774,8.262-2.373a4.4,4.4,0,0,0,1.993-2.3,25.951,25.951,0,0,0,.092-5c-3.972,3.109-8.629,3.716-13.4,3.718-4.8,0-9.489-.6-13.571-3.828,0,1.522.012,2.885,0,4.248a2.619,2.619,0,0,0,1.139,2.382,20.078,20.078,0,0,0,3.9,2.045,28.069,28.069,0,0,0,10.008,1.26m-13.023,11.278a19.321,19.321,0,0,0,9.407,2.531c4.266.258,8.487-.026,12.44-1.859a5.914,5.914,0,0,0,3.037-7.876c-3.939,3.11-8.6,3.692-13.386,3.7-4.807,0-9.483-.628-13.527-3.836,0,1.281.073,2.413-.017,3.532a3.835,3.835,0,0,0,2.046,3.813m5.445-18.79a31.327,31.327,0,0,0,11.975.038,13.065,13.065,0,0,0,6.547-2.753c1.481-1.321,1.516-2.941-.04-4.146a11.693,11.693,0,0,0-3.4-1.871,28.526,28.526,0,0,0-17.576-.15,12.385,12.385,0,0,0-3.558,1.794c-1.941,1.394-1.9,3.126-.035,4.612a14.171,14.171,0,0,0,6.082,2.475m19.64,18.86c-.13-.1-.326-.307-.382-.275-1.545.892-1.629,1.117-1.178,2.929.119.477.248.953.332,1.436.126.718.472.957,1.23.593,0-1.5,0-3,0-4.684m-25.71,3.328c.143-.615.325-1.225.409-1.848a1.046,1.046,0,0,0-.236-.8,16.645,16.645,0,0,0-1.519-1.149v5.22c1.313.407,1.05-.677,1.346-1.426m25.952-5.218.013-.161-.091,0A.18.18,0,0,0,311.081,105.463Z" transform="translate(-211.76 -57.116)" fill="#404e2a"/>
    <path id="Path_21" data-name="Path 21" d="M271,369.234a3.013,3.013,0,0,1,2.806,2.191,3.161,3.161,0,0,1-1.139,3.568,3.407,3.407,0,0,1,2.36,3.179,3.474,3.474,0,0,1-1.726,3.193l-.439.277s.034.007-.054,0c-2.27.068-4.452.142-6.632.173,0-.043.015-.129.073-.159.073-3.715.117-7.4.083-11.083-.008-.94.3-1.225,1.215-1.2,1.149.034,2.3-.087,3.453-.141m-1.778,10.371c.492,0,.985.019,1.476,0a1.4,1.4,0,0,0,1.463-1.369,1.371,1.371,0,0,0-1.249-1.561,14.545,14.545,0,0,0-2.142-.021,14.773,14.773,0,0,0,.452,2.954m0-8.247c-.125.138-.353.272-.359.415-.035.8-.017,1.605-.017,2.389,1.52.236,2.337-.189,2.43-1.2C271.367,371.985,270.692,371.4,269.223,371.359Z" transform="translate(-198.63 -287.025)" fill="#293915"/>
    <path id="Path_22" data-name="Path 22" d="M210.016,381.846c-.09-.177-.257-.354-.258-.531-.015-3.946-.011-7.892-.011-12,.431,0,.8.011,1.176,0a21.03,21.03,0,0,1,3.649-.1,6.021,6.021,0,0,1,5.2,5.9c.112,3.3-1.707,5.688-5.151,6.568-1.645.079-3.127.12-4.608.161m2.468-2.853a3.354,3.354,0,0,0,4.237-2.207,3.679,3.679,0,0,0-2.225-4.874,5.7,5.7,0,0,0-2.232.106c-.028,2.2-.058,4.4-.075,6.6C212.19,378.693,212.318,378.771,212.484,378.992Z" transform="translate(-154.153 -286.959)" fill="#293915"/>
    <path id="Path_23" data-name="Path 23" d="M167.651,284.413c.315-.185.642-.284.774-.5.962-1.577,2.446-.9,3.788-1.028-.427,2.5-3.406,4.594-6.248,4.5a6.591,6.591,0,0,1-6.309-5.9,6.52,6.52,0,0,1,12.653-2.768c-.941,0-1.833.023-2.721-.018a1.039,1.039,0,0,1-.571-.38,3.619,3.619,0,0,0-4.847-.774,3.978,3.978,0,0,0-1.314,5.067,3.617,3.617,0,0,0,4.618,1.876C167.509,284.475,167.54,284.459,167.651,284.413Z" transform="translate(-114.657 -212.224)" fill="#283a14"/>
    <path id="Path_24" data-name="Path 24" d="M227.554,281.641a.255.255,0,0,0,.018-.245c-.021-.056-.036-.075-.008-.115a.482.482,0,0,0,.011-.323c0-4.213-.011-8.327-.025-12.441l2.763-.373v6.648a14.419,14.419,0,0,1,1.9-.835,2.683,2.683,0,0,1,3.56,2.053,53.738,53.738,0,0,1,.183,6.1c0,.063-.2.13-.468.137a2.022,2.022,0,0,0-.67-.137c-.968.131-1.329-.26-1.254-1.24a24.333,24.333,0,0,0,0-2.95,3.1,3.1,0,0,0-.343-.9,1.227,1.227,0,0,0-1.492-.86,1.659,1.659,0,0,0-1.3,1.6c-.09.834-.043,1.684-.049,2.527a14.824,14.824,0,0,1-.091,1.9,18.959,18.959,0,0,1-2.428.162,6.411,6.411,0,0,1-.274-.6A.488.488,0,0,0,227.554,281.641Z" transform="translate(-168.184 -207.354)" fill="#293a15"/>
    <path id="Path_25" data-name="Path 25" d="M284.266,303.384c-1.325.495-2.637.308-3-.426-2.437,1.276-4.493,1.012-5.87-.753a4.5,4.5,0,0,1,.234-5.742c1.472-1.6,3.516-1.74,5.695-.344a1.79,1.79,0,0,1,.3-.749c.858-.054,1.569-.063,2.281-.072a.49.49,0,0,1,.191.115,1.543,1.543,0,0,1,.139.632c-.021.033.019.1-.006.183-.009.2.007.312,0,.458-.019.031.021.093,0,.192-.005,2.235.015,4.371.035,6.507m-2.955-3.237a2.028,2.028,0,0,0-1-2.523,1.981,1.981,0,0,0-2.689,2.563,3.047,3.047,0,0,0,1.616,1.289C280.136,301.733,280.842,301.166,281.311,300.147Z" transform="translate(-205.165 -228.644)" fill="#283914"/>
    <path id="Path_26" data-name="Path 26" d="M88.778,133.505a.64.64,0,0,0-.049-.218c-2.112-.153-4.175-.181-6.238-.192-.094,0-.19.152-.285.232,0,0-.043.072-.1.157a2.507,2.507,0,0,0-.12.484s-.035.063-.094.15c-.545,1.575-1.031,3.063-1.517,4.552a.285.285,0,0,0-.061.119.626.626,0,0,0-.028.259.871.871,0,0,0-.073.05c-1.155.09-2.236.129-3.317.167a.315.315,0,0,0-.027-.072c.054-.515.135-.968.216-1.421q2.824-8.229,5.647-16.458c.937-2.735.931-2.712,3.8-2.681a1.034,1.034,0,0,1,1.138.814q3.245,9.595,6.512,19.182a.766.766,0,0,1-.035.516c-1.161.115-2.22.126-3.279.136a.179.179,0,0,0-.034-.063c-.1-.183-.172-.319-.241-.454a.239.239,0,0,0-.011-.113c-.188-.509-.356-.933-.524-1.356a1.448,1.448,0,0,0-.02-.181,2.808,2.808,0,0,0-.192-.424s-.018.013-.009-.064a2.437,2.437,0,0,0-.169-.48.218.218,0,0,0,0-.118,4.633,4.633,0,0,0-.186-.435s-.036.046-.013-.043a2.642,2.642,0,0,0-.192-.594s-.021.053-.01-.051c-.157-.536-.324-.968-.491-1.4m-4.687-13.583-6.3,18.491c1.293.4,1.89.072,2.193-1.142a32.183,32.183,0,0,1,1.787-4.966c2.468-.01,4.935-.02,7.487.1.556,1.59,1.125,3.176,1.665,4.772.532,1.572.528,1.581,2.317,1.239-.225-.664-.444-1.318-.669-1.97-1.841-5.347-3.684-10.694-5.521-16.17a1,1,0,0,1-.121-.266s-.039-.032-.046-.2A2.37,2.37,0,0,0,84.091,119.922Z" transform="translate(-49.432 -89.517)" fill="#0f1b06"/>
    <path id="Path_27" data-name="Path 27" d="M166.869,124.161a3.878,3.878,0,0,0-.042.452c0,3.64,0,7.112-.014,10.585-.008,1.469-.065,2.939-.1,4.408a29.337,29.337,0,0,1-3.217-.076,1.336,1.336,0,0,1-.143-.539q0-9.529,0-19.058a7.407,7.407,0,0,1,.093-.838,24.955,24.955,0,0,1,3.314.25c.075,1.424.094,2.7.112,3.969a3.324,3.324,0,0,0-.049.422,4.071,4.071,0,0,0,.047.425m-2.648,9.853v4.834h1.671V119.9h-1.671Z" transform="translate(-117.587 -89.886)" fill="#213113"/>
    <path id="Path_28" data-name="Path 28" d="M329.548,291.471v-5.506l-1.478-.155v-2.117l1.373-.094v-3.023a17.1,17.1,0,0,1,2.738.144c.056,1.061.056,1.977.056,2.923h1.3a9.017,9.017,0,0,1-.2,2.078c-.649.007-1.153-.053-1.224.713-.126,1.458-.2,2.87-.245,4.283-.034,1.119-.39,1.422-1.483,1.148A4.707,4.707,0,0,1,329.548,291.471Z" transform="translate(-247.406 -217.152)" fill="#283815"/>
    <path id="Path_29" data-name="Path 29" d="M189.884,116.031a1.367,1.367,0,0,0,.419.01.767.767,0,0,0,.3-.316c.827-1.264,1.7-2.5,2.463-3.8a1.547,1.547,0,0,1,1.679-.948A2.166,2.166,0,0,0,197.08,110a1.945,1.945,0,0,1,2.984-.023,2.067,2.067,0,0,1-.133,3.019,2.1,2.1,0,0,1-3.084-.35,1.92,1.92,0,0,0-3.332.157c-.727,1.168-1.434,2.351-2.215,3.482a1.449,1.449,0,0,1-.984.59c-1.975.039-3.952-.006-6.022-.112a1.26,1.26,0,0,1-.1-.526s-.02,0,.06-.025c1.931-.08,3.781-.132,5.631-.185m8.76-3.387c.876-.079,1.331-.652,1.11-1.413a1.224,1.224,0,0,0-2.408.01C197.134,112,197.6,112.571,198.644,112.644Z" transform="translate(-134.013 -82.163)" fill="#132009"/>
    <path id="Path_30" data-name="Path 30" d="M192.253,192.724c-2.173,0-4.253.014-6.332-.021a3.179,3.179,0,0,1-.974-.362c.3-.141.6-.4.91-.405,2.15-.036,4.3-.044,6.45,0a2.1,2.1,0,0,1,1.185.5,9.78,9.78,0,0,1,1.54,1.593,2.683,2.683,0,0,0,2.627,1.148c.625-.062,1.078-.1,1.431-.745a1.9,1.9,0,0,1,2.4-.806,1.932,1.932,0,0,1,1.4,1.918,2.093,2.093,0,0,1-1.518,2.058,2.039,2.039,0,0,1-2.31-.867c-.163-.226-.282-.484-.491-.851-2.3.777-3.7-.6-5.023-2.214a5.184,5.184,0,0,0-1.3-.948m9.531,3.645a1.065,1.065,0,0,0-.139-1.664,1.569,1.569,0,0,0-1.38-.192,1.755,1.755,0,0,0-.645,1.361C199.682,196.793,200.648,197.04,201.784,196.369Z" transform="translate(-134.608 -147.269)" fill="#101f06"/>
    <path id="Path_31" data-name="Path 31" d="M208,144.939a3.135,3.135,0,0,0,1.931-1.636,1.83,1.83,0,0,1,2.21-1.046,1.977,1.977,0,0,1,1.652,1.834,1.944,1.944,0,0,1-1.221,2.129,2.021,2.021,0,0,1-2.411-.51,5.171,5.171,0,0,1-.431-.593c-.074,0-.163-.035-.2,0-1.656,1.349-3.6,1.381-5.6,1.293-1.408-.062-2.821-.016-4.231-.009-.461,0-.893,0-.631-.733,2.407-.079,4.7-.045,6.993-.128a7.719,7.719,0,0,0,1.938-.6m3.634-1.916c-.816.22-1.34.691-1.126,1.591a1.081,1.081,0,0,0,1.424.9,1.742,1.742,0,0,0,1-1.019C213.156,143.652,212.546,143.229,211.632,143.022Z" transform="translate(-145.674 -108.093)" fill="#122205"/>
    <path id="Path_32" data-name="Path 32" d="M193.437,171.516a.669.669,0,0,0-.146-.252,1.479,1.479,0,0,1-.068-.338s-.021,0,.037-.021a3.766,3.766,0,0,0,.344-.262c.091,0,.182.005.437.015,1.929.01,3.694-.014,5.457.03.624.015,1.017-.151,1.165-.773,0,0-.025-.017.035-.029a.7.7,0,0,0,.184-.212c.093-.051.186-.1.393-.206.547-.1.981-.144,1.414-.189,0,0,0-.038.007.016a.485.485,0,0,0,.231.107c.164.131.329.263.575.5.2.613.327,1.124.449,1.636-.077.158-.153.317-.294.562-.112.137-.138.2-.142.264,0,0,.021,0-.035.013a.743.743,0,0,0-.194.2s.025,0-.052,0c-.652.084-1.227.167-1.8.251-.179-.125-.358-.25-.617-.462a6.249,6.249,0,0,1-.477-.682c-2.324-.113-4.613-.139-6.9-.165m9.244.41a3.389,3.389,0,0,0,.284-1.291c-.044-.238-.6-.547-.9-.527a1.289,1.289,0,0,0-.851.654C200.819,171.512,201.4,172.032,202.681,171.927Z" transform="translate(-141.128 -129.426)" fill="#111f05"/>
    <path id="Path_33" data-name="Path 33" d="M282.137,103.389c.078,2.774.132,5.622.138,8.471.014,7.111.006,14.221,0,21.432a2.373,2.373,0,0,1-.264-.875q-.021-14.165-.007-28.331A2.808,2.808,0,0,1,282.137,103.389Z" transform="translate(-211.102 -77.507)" fill="#c8fa85"/>
    <path id="Path_34" data-name="Path 34" d="M418.651,133.2c-.059-9.4-.062-18.868-.069-28.336,0-.421-.036-.842-.07-1.362a2.195,2.195,0,0,1,.3.845q.025,14.085.007,28.169A2.153,2.153,0,0,1,418.651,133.2Z" transform="translate(-318.686 -77.596)" fill="#cbfa8a"/>
    <path id="Path_35" data-name="Path 35" d="M226.269,269.862c.075,4.123.089,8.237.065,12.492-.057.2-.051.263-.02.321,0,0,.015.02.012.032a3.134,3.134,0,0,1-.312-.953c-.022-3.793-.018-7.586-.006-11.38A.939.939,0,0,1,226.269,269.862Z" transform="translate(-166.962 -208.708)" fill="#c3fa7f"/>
    <path id="Path_36" data-name="Path 36" d="M162.3,119.321a4.439,4.439,0,0,1-.013.79q-.007,9.529,0,19.058a3.91,3.91,0,0,0,.07.516,2.4,2.4,0,0,1-.344-.916q-.032-9.2-.005-18.4A2.917,2.917,0,0,1,162.3,119.321Z" transform="translate(-116.518 -90.063)" fill="#cbfc87"/>
    <path id="Path_37" data-name="Path 37" d="M264.195,381.995a3.729,3.729,0,0,1-.18-.8q-.017-5.522,0-11.044a1.224,1.224,0,0,1,.154-.521.767.767,0,0,1,.2.4c0,1.081,0,2.064-.049,3.125-.014,2.085.014,4.092.049,6.19,0,.513,0,.935-.039,1.382-.039.05-.059.081-.051.1a1.129,1.129,0,0,1,.089.191,1.006,1.006,0,0,1-.048.38A4.184,4.184,0,0,0,264.195,381.995Z" transform="translate(-196.917 -287.336)" fill="#c8fa80"/>
    <path id="Path_38" data-name="Path 38" d="M265.674,372.625c0-.984.01-1.967.032-3.116l.051-.456c1.551,0,3.1-.007,4.75.013a32.57,32.57,0,0,1-3.357.165c-.917-.027-1.223.258-1.215,1.2.033,3.684-.011,7.369-.105,11a1.7,1.7,0,0,1-.158-.541c0-.087.009-.174.026-.388a.758.758,0,0,0-.026-.253c.005-.422.01-.845.034-1.455C265.709,376.613,265.692,374.619,265.674,372.625Z" transform="translate(-198.23 -286.88)" fill="#1c3501"/>
    <path id="Path_39" data-name="Path 39" d="M320.344,304.254c-.081-2.089-.1-4.225-.087-6.474a.488.488,0,0,0,.016-.209,1.714,1.714,0,0,1-.014-.442c.044-.135.039-.169.018-.2-.025-.171-.05-.343-.1-.6.1-.029.343.025.343.077C320.491,299.008,320.446,301.608,320.344,304.254Z" transform="translate(-241.182 -229.562)" fill="#c5f883"/>
    <path id="Path_40" data-name="Path 40" d="M179.536,160.337c-.044-1.421.014-2.89.021-4.36.018-3.473.012-6.946.036-10.516a2.577,2.577,0,0,1,.232.907q.021,6.461,0,12.921A2.98,2.98,0,0,1,179.536,160.337Z" transform="translate(-130.331 -110.665)" fill="#c9fa88"/>
    <path id="Path_41" data-name="Path 41" d="M334.957,313.719a9,9,0,0,1,.86.3c1.093.274,1.449-.029,1.483-1.148.043-1.413.119-2.826.256-4.185.1,1.823.123,3.591.147,5.36,0,0-.023-.049-.084-.013a.4.4,0,0,0-.127.2c-.685.008-1.372.045-2.054,0C335.263,314.226,335.1,313.96,334.957,313.719Z" transform="translate(-252.834 -239.307)" fill="#1c3501"/>
    <path id="Path_42" data-name="Path 42" d="M194.171,180.1c2.3-.026,4.594,0,6.905.161a.647.647,0,0,1,0,.231c-1.742,0-3.485.028-5.226-.014A6.494,6.494,0,0,1,194.171,180.1Z" transform="translate(-141.878 -137.958)" fill="#c7f887"/>
    <path id="Path_43" data-name="Path 43" d="M203.885,172.347c-.064.619-.457.785-1.081.77-1.763-.044-3.528-.02-5.39-.047a2.109,2.109,0,0,1,.919-.349c1.29-.039,2.583.018,3.872-.032A11.791,11.791,0,0,0,203.885,172.347Z" transform="translate(-144.434 -131.854)" fill="#b5e279"/>
    <path id="Path_44" data-name="Path 44" d="M254.274,310.479a1.81,1.81,0,0,1,.348.8,24.336,24.336,0,0,1,0,2.95c-.075.98.286,1.371,1.254,1.24a1.527,1.527,0,0,1,.585.124,13.075,13.075,0,0,1-1.956.015.519.519,0,0,1-.146-.115C254.33,313.857,254.3,312.217,254.274,310.479Z" transform="translate(-189.246 -240.719)" fill="#1c3501"/>
    <path id="Path_45" data-name="Path 45" d="M208.249,155.113a6,6,0,0,1-1.844.6c-2.291.083-4.586.049-6.98.061a3.453,3.453,0,0,1,.986-.25c1.3-.031,2.605.039,3.9-.028S206.876,155.243,208.249,155.113Z" transform="translate(-146.019 -118.272)" fill="#c6f38d"/>
    <path id="Path_46" data-name="Path 46" d="M347.659,311.071c-.078-1.705-.1-3.474-.136-5.341,0-.82.5-.76,1.072-.718-1.178.869-.681,2.168-.745,3.324C347.8,309.227,347.759,310.118,347.659,311.071Z" transform="translate(-262.737 -236.394)" fill="#c5f883"/>
    <path id="Path_47" data-name="Path 47" d="M93.78,196.432c.41-1.493.9-2.982,1.444-4.521C94.81,193.386,94.333,194.911,93.78,196.432Z" transform="translate(-62.758 -147.273)" fill="#b4df79"/>
    <path id="Path_48" data-name="Path 48" d="M265.771,427.95c2.182-.074,4.364-.148,6.636-.233-.168.146-.424.439-.682.44-2.018,0-4.036-.047-6.061-.136A.118.118,0,0,1,265.771,427.95Z" transform="translate(-198.223 -333.116)" fill="#c5f883"/>
    <path id="Path_49" data-name="Path 49" d="M143.1,215.98c1.025-.085,2.084-.1,3.236-.131,0,.112-.09.369-.176.366C145.154,216.184,144.146,216.114,143.1,215.98Z" transform="translate(-101.63 -166.139)" fill="#b4df79"/>
    <path id="Path_50" data-name="Path 50" d="M77.145,215.49c1.051-.115,2.132-.153,3.287-.244-.062.132-.2.477-.332.476A24.181,24.181,0,0,1,77.145,215.49Z" transform="translate(-49.647 -165.664)" fill="#b4df79"/>
    <path id="Path_51" data-name="Path 51" d="M102.516,187.144c0-.079.092-.231.186-.23,2.063.011,4.126.039,6.217.152C106.836,187.151,104.725,187.146,102.516,187.144Z" transform="translate(-69.642 -143.335)" fill="#b4df79"/>
    <path id="Path_52" data-name="Path 52" d="M190.056,140.3c-1.78.108-3.63.161-5.559.251.084-.112.246-.391.408-.391C186.6,140.159,188.293,140.206,190.056,140.3Z" transform="translate(-134.254 -106.485)" fill="#c9fa88"/>
    <path id="Path_53" data-name="Path 53" d="M349.076,284.313a12.906,12.906,0,0,1-1.339.042c0-.946,0-1.862.016-2.875a.928.928,0,0,1,.344.522,3.382,3.382,0,0,1-.09.822c-.1.826.026,1.46,1.1,1.257a.178.178,0,0,1,.034.091C349.146,284.2,349.126,284.238,349.076,284.313Z" transform="translate(-262.906 -217.864)" fill="#c5f883"/>
    <path id="Path_54" data-name="Path 54" d="M310.672,294.153a18.493,18.493,0,0,1-2.2.092C309.089,293.566,309.86,293.77,310.672,294.153Z" transform="translate(-231.963 -227.573)" fill="#c5f883"/>
    <path id="Path_55" data-name="Path 55" d="M211.356,428.644c1.41-.092,2.891-.133,4.472-.177a2.565,2.565,0,0,1-.944.308C213.732,428.786,212.579,428.727,211.356,428.644Z" transform="translate(-155.422 -333.707)" fill="#cbfa8a"/>
    <path id="Path_56" data-name="Path 56" d="M179.816,124.374c-.072-1.2-.091-2.474-.11-3.845C179.76,121.722,179.815,123.013,179.816,124.374Z" transform="translate(-130.478 -91.015)" fill="#c9fa88"/>
    <path id="Path_57" data-name="Path 57" d="M232.122,185.158a13.9,13.9,0,0,1,1.771-.336C233.553,185.771,232.879,185.617,232.122,185.158Z" transform="translate(-171.788 -141.686)" fill="#bdea80"/>
    <path id="Path_58" data-name="Path 58" d="M229.124,335.019c.752-.081,1.531-.1,2.4-.129C230.8,334.945,229.975,335.014,229.124,335.019Z" transform="translate(-169.425 -259.957)" fill="#c3fa7f"/>
    <path id="Path_59" data-name="Path 59" d="M242.47,173.942a14.49,14.49,0,0,1-.447-1.568C242.882,172.6,242.837,173.207,242.47,173.942Z" transform="translate(-179.591 -131.875)" fill="#bdea80"/>
    <path id="Path_60" data-name="Path 60" d="M75.609,209.105c-.013.428-.094.882-.153,1.4C74.731,210.054,75.214,209.6,75.609,209.105Z" transform="translate(-48.021 -160.824)" fill="#b4df79"/>
    <path id="Path_61" data-name="Path 61" d="M133.031,189.253a10,10,0,0,1,.513,1.291A9.994,9.994,0,0,1,133.031,189.253Z" transform="translate(-93.692 -145.178)" fill="#b4df79"/>
    <path id="Path_62" data-name="Path 62" d="M232.725,168.14a8.213,8.213,0,0,1-1.329.21C231.644,167.668,232.164,167.9,232.725,168.14Z" transform="translate(-171.216 -128.35)" fill="#bdea80"/>
    <path id="Path_63" data-name="Path 63" d="M139.083,207.154a10.293,10.293,0,0,1,.522,1.258A10.242,10.242,0,0,1,139.083,207.154Z" transform="translate(-98.462 -159.286)" fill="#b4df79"/>
    <path id="Path_64" data-name="Path 64" d="M226.839,181.51a.363.363,0,0,1,.009-.206,2.4,2.4,0,0,1,.4.518A1.285,1.285,0,0,1,226.839,181.51Z" transform="translate(-167.615 -138.913)" fill="#bdea80"/>
    <path id="Path_65" data-name="Path 65" d="M193.752,175.536a1.156,1.156,0,0,1-.324.32A1.156,1.156,0,0,1,193.752,175.536Z" transform="translate(-141.292 -134.368)" fill="#b5e279"/>
    <path id="Path_66" data-name="Path 66" d="M265.212,425.916c-.04.048-.079.054-.175.056-.058,0-.074-.1-.085-.142a2.764,2.764,0,0,1,.112-.639,1.714,1.714,0,0,1,.142.516A.635.635,0,0,1,265.212,425.916Z" transform="translate(-197.662 -331.125)" fill="#90b461"/>
    <path id="Path_67" data-name="Path 67" d="M141.544,213.974a1.219,1.219,0,0,1,.256.393A1.216,1.216,0,0,1,141.544,213.974Z" transform="translate(-100.402 -164.661)" fill="#b4df79"/>
    <path id="Path_68" data-name="Path 68" d="M286.113,245.738a1.128,1.128,0,0,1,.546-.074A1.128,1.128,0,0,1,286.113,245.738Z" transform="translate(-214.339 -189.636)" fill="#c8fa85"/>
    <path id="Path_69" data-name="Path 69" d="M183.962,142.262a1.418,1.418,0,0,1,.074.468A1.417,1.417,0,0,1,183.962,142.262Z" transform="translate(-133.832 -108.144)" fill="#c9fa88"/>
    <path id="Path_70" data-name="Path 70" d="M135.333,196.048a1.243,1.243,0,0,1,.235.5A1.245,1.245,0,0,1,135.333,196.048Z" transform="translate(-95.507 -150.533)" fill="#b4df79"/>
    <path id="Path_71" data-name="Path 71" d="M101.2,189.34a.68.68,0,0,1,.078-.389A.682.682,0,0,1,101.2,189.34Z" transform="translate(-68.598 -144.94)" fill="#b4df79"/>
    <path id="Path_72" data-name="Path 72" d="M226.8,331.917c.044-.022.057,0,.051.017-.071.056-.137.1-.2.143A.94.94,0,0,1,226.8,331.917Z" transform="translate(-167.477 -257.607)" fill="#c3fa7f"/>
    <path id="Path_73" data-name="Path 73" d="M265.174,369.019a.547.547,0,0,1,0,.366c-.073-.038-.12-.144-.168-.309C265.04,369.014,265.079,369.013,265.174,369.019Z" transform="translate(-197.703 -286.853)" fill="#90b461"/>
    <path id="Path_74" data-name="Path 74" d="M298.063,426.962a.809.809,0,0,1,.326-.221A.809.809,0,0,1,298.063,426.962Z" transform="translate(-223.757 -332.347)" fill="#c5f883"/>
    <path id="Path_75" data-name="Path 75" d="M136.344,199.028a.7.7,0,0,1,.18.356A.7.7,0,0,1,136.344,199.028Z" transform="translate(-96.303 -152.882)" fill="#b4df79"/>
    <path id="Path_76" data-name="Path 76" d="M179.9,141.641a.447.447,0,0,1-.065-.32A.447.447,0,0,1,179.9,141.641Z" transform="translate(-130.581 -107.402)" fill="#c9fa88"/>
    <path id="Path_77" data-name="Path 77" d="M137.246,201.676a.906.906,0,0,1,.187.4A.906.906,0,0,1,137.246,201.676Z" transform="translate(-97.014 -154.969)" fill="#b4df79"/>
    <path id="Path_78" data-name="Path 78" d="M241.959,183.123c-.042-.069-.016-.128.074-.2A.21.21,0,0,1,241.959,183.123Z" transform="translate(-179.525 -140.189)" fill="#bdea80"/>
    <path id="Path_79" data-name="Path 79" d="M138.1,204.177a.673.673,0,0,1,.174.326A.673.673,0,0,1,138.1,204.177Z" transform="translate(-97.69 -156.94)" fill="#b4df79"/>
    <path id="Path_80" data-name="Path 80" d="M193.023,177.232c.053.056.061.14.067.288A.441.441,0,0,1,193.023,177.232Z" transform="translate(-140.972 -135.704)" fill="#b5e279"/>
    <path id="Path_81" data-name="Path 81" d="M283.185,244.881c.065-.043.123-.021.206.053A.208.208,0,0,1,283.185,244.881Z" transform="translate(-212.031 -189.002)" fill="#c8fa85"/>
    <path id="Path_82" data-name="Path 82" d="M238.072,169.455c-.035.021-.108,0-.211-.064C237.9,169.366,237.966,169.391,238.072,169.455Z" transform="translate(-176.311 -129.517)" fill="#bdea80"/>
    <path id="Path_83" data-name="Path 83" d="M240.982,184.064c-.008-.039.038-.1.141-.186C241.131,183.919,241.083,183.979,240.982,184.064Z" transform="translate(-178.77 -140.942)" fill="#bdea80"/>
    <path id="Path_84" data-name="Path 84" d="M93.041,214.124c-.04-.024-.036-.086,0-.189C93.1,213.957,93.1,214.021,93.041,214.124Z" transform="translate(-62.153 -164.631)" fill="#b4df79"/>
    <path id="Path_85" data-name="Path 85" d="M228.658,171.309c.013.042-.028.109-.124.2C228.521,171.469,228.562,171.4,228.658,171.309Z" transform="translate(-168.958 -131.036)" fill="#b5e279"/>
    <path id="Path_86" data-name="Path 86" d="M347.1,334.156c-.04-.048-.018-.1.047-.181C347.173,334.015,347.164,334.08,347.1,334.156Z" transform="translate(-262.389 -259.236)" fill="#658c36"/>
    <path id="Path_87" data-name="Path 87" d="M254.566,334.251c.023-.024.074.039.077.06C254.593,334.349,254.558,334.331,254.566,334.251Z" transform="translate(-189.476 -259.45)" fill="#293a15"/>
    <path id="Path_88" data-name="Path 88" d="M283.419,101.116c.006.032-.033.1-.127.187C283.283,101.268,283.328,101.209,283.419,101.116Z" transform="translate(-212.115 -75.716)" fill="#c8fa85"/>
    <path id="Path_89" data-name="Path 89" d="M213.521,139.863c0,.046-.048.139-.182.242C213.326,140.046,213.4,139.978,213.521,139.863Z" transform="translate(-156.984 -106.253)" fill="#c9fa88"/>
    <path id="Path_90" data-name="Path 90" d="M301.976,127.832a27.952,27.952,0,0,1-9.91-1.266,20.078,20.078,0,0,1-3.9-2.045,2.619,2.619,0,0,1-1.139-2.382c.017-1.363,0-2.727,0-4.248,4.082,3.23,8.77,3.83,13.571,3.828,4.772,0,9.428-.609,13.4-3.718a25.951,25.951,0,0,1-.091,5,4.4,4.4,0,0,1-1.993,2.3c-2.493,1.6-5.368,2.065-8.262,2.373-.526.056-1.053.1-1.678.158m-13.416-6.151c-.427.953-.264,1.645.461,1.955a1.192,1.192,0,0,0,1.671-.792c.061-.411-.117-1.13-.395-1.257A3.113,3.113,0,0,0,288.561,121.681Z" transform="translate(-215.057 -88.936)" fill="#bdf972"/>
    <path id="Path_91" data-name="Path 91" d="M314.053,151.977a22.891,22.891,0,0,0-.032,2.326,3.722,3.722,0,0,1-2.1,3.7,17.886,17.886,0,0,1-7.322,2.287,28.143,28.143,0,0,1-13.763-1.371,14.042,14.042,0,0,1-1.8-.891,3.769,3.769,0,0,1-2.156-3.8c.088-1.141.016-2.295.016-3.6,4.088,3.219,8.755,3.838,13.519,3.845s9.447-.61,13.5-3.778c.039.333.072.618.107,1.041a1.288,1.288,0,0,0,.028.247m-23.7,2.4c-1.01-.634-2.023-.418-2.129.531a1.226,1.226,0,0,0,1.949,1.246C290.8,155.788,290.811,155.128,290.348,154.373Z" transform="translate(-214.935 -114.732)" fill="#befa72"/>
    <path id="Path_92" data-name="Path 92" d="M288.853,190.653a3.8,3.8,0,0,1-1.98-3.772c.09-1.119.017-2.251.017-3.532,4.044,3.208,8.719,3.841,13.527,3.836,4.782,0,9.447-.586,13.386-3.7a5.914,5.914,0,0,1-3.037,7.876c-3.953,1.833-8.174,2.118-12.44,1.859a19.366,19.366,0,0,1-9.473-2.571m.015-3.845a1.183,1.183,0,0,0-.425,1.929,1.078,1.078,0,0,0,1.735.136,1.711,1.711,0,0,0,.354-1.377C290.36,186.8,289.731,186.587,288.868,186.808Z" transform="translate(-214.925 -140.525)" fill="#bdfa72"/>
    <path id="Path_93" data-name="Path 93" d="M294.328,91.4a14,14,0,0,1-5.994-2.455c-1.869-1.486-1.906-3.218.035-4.612a12.386,12.386,0,0,1,3.558-1.794,28.526,28.526,0,0,1,17.576.15,11.694,11.694,0,0,1,3.4,1.871c1.556,1.2,1.52,2.824.04,4.146a13.064,13.064,0,0,1-6.547,2.753,31.408,31.408,0,0,1-12.063-.058m-1.6-8.166a21.27,21.27,0,0,0-2.692,1.2c-2.082,1.282-2.121,3.117-.042,4.384a12.966,12.966,0,0,0,3.495,1.44,27.409,27.409,0,0,0,12.991.212,17.556,17.556,0,0,0,4.937-2c1.536-.9,1.527-2.48.108-3.585a9.1,9.1,0,0,0-2.876-1.505A28.772,28.772,0,0,0,292.731,83.229Z" transform="translate(-214.977 -60.036)" fill="#b7e975"/>
    <path id="Path_94" data-name="Path 94" d="M408.295,217.4c0,1.594,0,3.1,0,4.6-.758.364-1.1.125-1.23-.593-.085-.483-.214-.959-.332-1.436-.451-1.812-.367-2.037,1.178-2.929C407.968,217,408.163,217.21,408.295,217.4Z" transform="translate(-309.215 -167.069)" fill="#b8ed74"/>
    <path id="Path_95" data-name="Path 95" d="M288.613,220.022c-.274.664-.011,1.747-1.324,1.341v-5.22a16.643,16.643,0,0,1,1.519,1.149,1.046,1.046,0,0,1,.236.8C288.96,218.711,288.778,219.321,288.613,220.022Z" transform="translate(-215.266 -166.37)" fill="#bbf075"/>
    <path id="Path_96" data-name="Path 96" d="M415.8,208.809a.279.279,0,0,1-.042-.162l.091,0A.276.276,0,0,1,415.8,208.809Z" transform="translate(-316.513 -160.463)" fill="#475331"/>
    <path id="Path_97" data-name="Path 97" d="M415.157,156.4c-.048-.029-.057-.066-.051-.158C415.145,156.253,415.171,156.321,415.157,156.4Z" transform="translate(-315.999 -119.159)" fill="#475331"/>
    <path id="Path_98" data-name="Path 98" d="M278.773,407.063a28.659,28.659,0,0,1-.35-2.94,14.554,14.554,0,0,1,2.142.021,1.371,1.371,0,0,1,1.249,1.561,1.4,1.4,0,0,1-1.463,1.369C279.86,407.1,279.367,407.077,278.773,407.063Z" transform="translate(-208.278 -314.497)" fill="#bff674"/>
    <path id="Path_99" data-name="Path 99" d="M279.219,379.249c1.377.047,2.052.629,1.962,1.611-.092,1.007-.91,1.432-2.43,1.2,0-.784-.018-1.588.017-2.389C278.775,379.524,279,379.39,279.219,379.249Z" transform="translate(-208.534 -294.918)" fill="#bff674"/>
    <path id="Path_100" data-name="Path 100" d="M222.223,381.85a8.215,8.215,0,0,1,2.106.016,3.679,3.679,0,0,1,2.225,4.874,3.168,3.168,0,0,1-4.261,2.047C222.254,386.367,222.238,384.109,222.223,381.85Z" transform="translate(-163.986 -296.914)" fill="#bef973"/>
    <path id="Path_101" data-name="Path 101" d="M221.417,382.388c.078,2.2.093,4.457.084,6.8-.093.011-.222-.068-.222-.145C221.3,386.848,221.327,384.649,221.417,382.388Z" transform="translate(-163.243 -297.392)" fill="#1c3501"/>
    <path id="Path_102" data-name="Path 102" d="M227.431,329.468c-.059-.018-.066-.078-.027-.182C227.467,329.3,227.479,329.362,227.431,329.468Z" transform="translate(-168.05 -255.541)" fill="#bffe72"/>
    <path id="Path_103" data-name="Path 103" d="M292.161,308.475c-.434.941-1.139,1.508-2.041,1.25a3.046,3.046,0,0,1-1.616-1.289,1.981,1.981,0,0,1,2.689-2.563A2.041,2.041,0,0,1,292.161,308.475Z" transform="translate(-216.05 -236.894)" fill="#bcf672"/>
    <path id="Path_104" data-name="Path 104" d="M320.541,299.336c.042,0,.047.033.028.084C320.56,299.435,320.52,299.369,320.541,299.336Z" transform="translate(-241.468 -231.937)" fill="#bffe72"/>
    <path id="Path_105" data-name="Path 105" d="M320.532,302.338c.02-.032.038.064.03.079S320.512,302.37,320.532,302.338Z" transform="translate(-241.461 -234.298)" fill="#bffe72"/>
    <path id="Path_106" data-name="Path 106" d="M90.484,124.913q2.763,8.02,5.526,16.041c.225.652.444,1.306.669,1.97-1.788.342-1.785.333-2.317-1.239-.54-1.6-1.109-3.182-1.775-4.89-2.454-.148-4.8-.184-7.141-.2-.14,0-.282.177-.423.272-.544,1.635-1.183,3.246-1.6,4.913-.3,1.214-.9,1.546-2.193,1.142,2.1-6.157,4.2-12.324,6.423-18.572.977-.01,1.827.061,2.678.132a.149.149,0,0,1,.035.12,1.012,1.012,0,0,0,.12.308m-.9,1.89a2.01,2.01,0,0,0-.119-.4c-.172-.322-.366-.633-.551-.949a4.776,4.776,0,0,0-.6.968c-.872,2.64-1.715,5.29-2.555,7.941-.109.343-.156.705-.242,1.109h6.828C91.413,132.562,90.519,129.763,89.58,126.8Z" transform="translate(-52.866 -94.028)" fill="#bbf274"/>
    <path id="Path_107" data-name="Path 107" d="M99.574,182.393c.047-.068.189-.246.33-.245,2.344.013,4.688.049,7.1.134C104.6,182.346,102.135,182.356,99.574,182.393Z" transform="translate(-67.324 -139.579)" fill="#cbfa8a"/>
    <path id="Path_108" data-name="Path 108" d="M114.341,122.734c-.847.015-1.7-.056-2.64-.119A2.236,2.236,0,0,1,114.341,122.734Z" transform="translate(-76.882 -92.363)" fill="#a5cf72"/>
    <path id="Path_109" data-name="Path 109" d="M124.451,125.881c-.043-.008-.084-.082-.126-.218C124.367,125.672,124.411,125.744,124.451,125.881Z" transform="translate(-86.831 -95.062)" fill="#a5cf72"/>
    <path id="Path_110" data-name="Path 110" d="M167.464,136.886V122.875h1.671v18.951h-1.671Z" transform="translate(-120.83 -92.864)" fill="#baf174"/>
    <path id="Path_111" data-name="Path 111" d="M247.3,116.119c-.96-.072-1.424-.642-1.213-1.4a1.224,1.224,0,0,1,2.408-.01C248.717,115.468,248.262,116.041,247.3,116.119Z" transform="translate(-182.755 -85.638)" fill="#bbef77"/>
    <path id="Path_112" data-name="Path 112" d="M256.3,205.781c-1.08.61-2.045.363-2.107-.556a1.755,1.755,0,0,1,.645-1.361,1.57,1.57,0,0,1,1.38.192C256.822,204.471,256.817,205.121,256.3,205.781Z" transform="translate(-189.182 -156.62)" fill="#bdf078"/>
    <path id="Path_113" data-name="Path 113" d="M254.38,146.084c.832.208,1.443.631,1.221,1.47a1.742,1.742,0,0,1-1,1.019,1.081,1.081,0,0,1-1.424-.9C252.958,146.776,253.482,146.3,254.38,146.084Z" transform="translate(-188.34 -111.156)" fill="#bdf078"/>
    <path id="Path_114" data-name="Path 114" d="M231.868,175.088c-1.2.073-1.781-.447-1.391-1.2a1.29,1.29,0,0,1,.851-.654c.306-.02.861.288.9.527A2.668,2.668,0,0,1,231.868,175.088Z" transform="translate(-170.396 -132.555)" fill="#bdf078"/>
    <path id="Path_115" data-name="Path 115" d="M265.465,386.287c.06,1.917.077,3.911.068,6C265.479,390.379,265.451,388.372,265.465,386.287Z" transform="translate(-198.063 -300.464)" fill="#90b461"/>
    <path id="Path_116" data-name="Path 116" d="M265.329,422.025c.044.017.057.059.05.163-.047.021-.081-.018-.1-.064C265.27,422.106,265.29,422.075,265.329,422.025Z" transform="translate(-197.917 -328.63)" fill="#90b461"/>
    <path id="Path_117" data-name="Path 117" d="M293.519,135a3.455,3.455,0,0,1,1.679-.032c.278.127.456.846.395,1.257a1.192,1.192,0,0,1-1.671.792C293.2,136.709,293.033,136.017,293.519,135Z" transform="translate(-219.957 -102.318)" fill="#40502b"/>
    <path id="Path_118" data-name="Path 118" d="M295.4,167.1c.412.694.405,1.353-.229,1.716a1.226,1.226,0,0,1-1.949-1.246C293.329,166.617,294.343,166.4,295.4,167.1Z" transform="translate(-219.939 -127.395)" fill="#45532d"/>
    <path id="Path_119" data-name="Path 119" d="M293.608,199.284c.787-.19,1.416.028,1.589.718a1.711,1.711,0,0,1-.354,1.377,1.078,1.078,0,0,1-1.735-.136C292.517,200.483,292.729,199.813,293.608,199.284Z" transform="translate(-219.589 -153.033)" fill="#495931"/>
    <path id="Path_120" data-name="Path 120" d="M298.515,86.751a28.76,28.76,0,0,1,15.84.173,9.1,9.1,0,0,1,2.876,1.505c1.419,1.1,1.428,2.68-.108,3.585a17.556,17.556,0,0,1-4.937,2A27.409,27.409,0,0,1,299.2,93.8a12.966,12.966,0,0,1-3.495-1.44c-2.079-1.268-2.04-3.1.042-4.384a21.5,21.5,0,0,1,2.773-1.229m16.4,1.2a27.257,27.257,0,0,0-16.65-.248,8.431,8.431,0,0,0-2.444,1.213c-1.143.806-1.117,1.7,0,2.572a5.592,5.592,0,0,0,1.56.874,26.188,26.188,0,0,0,17.819-.067,5.159,5.159,0,0,0,1.672-1.08,1.215,1.215,0,0,0-.032-2.073A13.5,13.5,0,0,0,314.918,87.946Z" transform="translate(-220.682 -63.586)" fill="#415128"/>
    <path id="Path_121" data-name="Path 121" d="M105.529,130.965c.916,2.88,1.81,5.679,2.737,8.583h-6.828c.086-.4.133-.766.242-1.109.841-2.65,1.684-5.3,2.555-7.941a4.775,4.775,0,0,1,.6-.968c.185.315.379.627.551.949a2.773,2.773,0,0,1,.142.485m1.112,6.293s0,0,0-.152c-.129-.326-.259-.652-.4-1.134l-1.443-4.394c-.708,2.2-1.358,4.227-2.116,6.363l-.281.919c.7,0,1.317,0,2.058.029a1.628,1.628,0,0,1,.452.015h2.361c-.164-.41-.287-.718-.419-1.124a.487.487,0,0,1-.013-.216C106.773,137.462,106.707,137.359,106.641,137.258Z" transform="translate(-68.793 -98.11)" fill="#0c1705"/>
    <path id="Path_122" data-name="Path 122" d="M318.025,90.938a13.869,13.869,0,0,1,1.849,1.159,1.215,1.215,0,0,1,.032,2.073,5.16,5.16,0,0,1-1.672,1.08,26.188,26.188,0,0,1-17.819.067,5.592,5.592,0,0,1-1.56-.874c-1.117-.869-1.142-1.766,0-2.572a8.431,8.431,0,0,1,2.444-1.213A27.269,27.269,0,0,1,318.025,90.938Z" transform="translate(-223.714 -66.546)" fill="#befb72"/>
    <path id="Path_123" data-name="Path 123" d="M109.746,146.473a.694.694,0,0,1-.366-.049c-.525-.486-1.559.092-1.562-.985l2.008-6.248c.526,1.6.985,3,1.441,4.553a8.462,8.462,0,0,0,.406,1.128.241.241,0,0,0,0,.058,2.235,2.235,0,0,0,.177.37.633.633,0,0,1,.024.226,2.469,2.469,0,0,1-.883.626A11.752,11.752,0,0,1,109.746,146.473Z" transform="translate(-73.821 -105.723)" fill="#bdf873"/>
    <path id="Path_124" data-name="Path 124" d="M117.371,170.242c.32-.125.748-.195,1.147-.342a3.135,3.135,0,0,0,.887-.577,6.86,6.86,0,0,1,.422.942C118.936,170.265,118.2,170.265,117.371,170.242Z" transform="translate(-81.35 -129.471)" fill="#abd276"/>
    <path id="Path_125" data-name="Path 125" d="M106.311,168.951c.058,1.019,1.092.441,1.552.913a17.588,17.588,0,0,1-1.888.063A10.161,10.161,0,0,1,106.311,168.951Z" transform="translate(-72.369 -129.178)" fill="#abd276"/>
    <path id="Path_126" data-name="Path 126" d="M124.528,162.023a5.185,5.185,0,0,1-.4-.973A5.208,5.208,0,0,1,124.528,162.023Z" transform="translate(-86.677 -122.951)" fill="#abd276"/>
    <path id="Path_127" data-name="Path 127" d="M126.187,166.585a.6.6,0,0,1-.186-.31A.6.6,0,0,1,126.187,166.585Z" transform="translate(-88.152 -127.069)" fill="#abd276"/>
  </g>
</svg>
