<svg xmlns="http://www.w3.org/2000/svg" width="46.96" height="46.959" viewBox="0 0 46.96 46.959">
  <g id="ic_launcher" transform="translate(0.5 0.5)" opacity="0.95">
    <g id="Group_4" data-name="Group 4" transform="translate(19.505 -0.5)">
      <path id="Path_128" data-name="Path 128" d="M213.157-.5h.939a6.239,6.239,0,0,1-1.6.188Z" transform="translate(-212.5 0.5)" fill="#041201" fill-rule="evenodd" opacity="0.098"/>
    </g>
    <g id="Group_5" data-name="Group 5" transform="translate(14.527 -0.5)">
      <path id="Path_129" data-name="Path 129" d="M166.074-.5h3.005a5.145,5.145,0,0,0,1.691.188q.7.078,1.409.094,1.271.361,2.536.751a3.79,3.79,0,0,1-1.5-.282,1.709,1.709,0,0,0-.329.188,1.789,1.789,0,0,0-.7-.376,18.166,18.166,0,0,1-1.831-.282q-.306.04-.61.094a20.229,20.229,0,0,0-2.63-.282,17.4,17.4,0,0,1-2.254.235,19.726,19.726,0,0,1-2.724.517V.627a7.355,7.355,0,0,0-1.878.282.764.764,0,0,0,0,.517.469.469,0,0,0-.235.329.31.31,0,0,1-.047-.423q-.254-.045-.094-.188A.792.792,0,0,0,159.5,1.1q.926-.4,1.878-.751a2.913,2.913,0,0,0,1.127-.282.433.433,0,0,1,.376-.094,4.022,4.022,0,0,0,1.6-.282A6.239,6.239,0,0,0,166.074-.5Z" transform="translate(-159.5 0.5)" fill="#b6ea74" fill-rule="evenodd" opacity="0.869"/>
    </g>
    <g id="Group_6" data-name="Group 6" transform="translate(24.107 -0.5)">
      <path id="Path_130" data-name="Path 130" d="M261.5-.5h1.691v.188A5.145,5.145,0,0,1,261.5-.5Z" transform="translate(-261.5 0.5)" fill="#638042" fill-rule="evenodd" opacity="0.686"/>
    </g>
    <g id="Group_7" data-name="Group 7" transform="translate(-0.5 -0.406)">
      <path id="Path_131" data-name="Path 131" d="M29.742,1.439a19.842,19.842,0,0,1,6.574,3.1q.258.4.564.8a1.926,1.926,0,0,1,.751.282.81.81,0,0,0,.47.517l-.188.188a1.584,1.584,0,0,0,.751.094l.845.751a.851.851,0,0,0,.282.517l-.188.094a.736.736,0,0,1,.564.282.456.456,0,0,0,.094.517.727.727,0,0,0,.47,0,.855.855,0,0,1-.094.47,1.965,1.965,0,0,1,.517.094,2.209,2.209,0,0,1,.47,1.127q.343-.192.141.141.174.478.235-.047a2.233,2.233,0,0,1,.235.564.65.65,0,0,1,.376.094q.256.319.517.657.6,1.159,1.268,2.254a17.474,17.474,0,0,1,.939,2.724l.141,1.127q.4,1.216.7,2.442.042.847.141,1.691a.521.521,0,0,0,.141.282v4.039a25.989,25.989,0,0,1-2.771,8.922q-.261.339-.517.657a.554.554,0,0,0-.141-.47,4.037,4.037,0,0,1-.47.564,2.966,2.966,0,0,0-.8-.8,3.012,3.012,0,0,1,.376-.235A.419.419,0,0,0,42,34.686q-.683.167-.141-.235a2.808,2.808,0,0,0-.61-.235,3.4,3.4,0,0,1-.235-1.409,5.671,5.671,0,0,1,.282.657,1.393,1.393,0,0,0,.188.61,3.989,3.989,0,0,0,1.221,0,.31.31,0,0,0,.188-.141q.164-9.321.047-18.69a.31.31,0,0,0-.141-.188A6.193,6.193,0,0,0,41.388,13.6,10.873,10.873,0,0,0,38.1,12.428a.152.152,0,0,1-.188-.094.716.716,0,0,0-.564-.282,11.625,11.625,0,0,0-1.784-.094q-1.832-.024-3.663.047a6.282,6.282,0,0,0-1.221.235h-.188a13.262,13.262,0,0,0-3.287.986,10.515,10.515,0,0,0-1.127.8,2.723,2.723,0,0,0-.939,1.127q-.281,6.338-.188,12.773a.581.581,0,0,1-.282-.564h-.564a1.354,1.354,0,0,1,0,.564,1.02,1.02,0,0,0-.845-.282,2.7,2.7,0,0,0,.47.751,1.617,1.617,0,0,1,.047.939.368.368,0,0,1-.329.188,1.139,1.139,0,0,0-.376-1.6.872.872,0,0,0-.564-.188,2.707,2.707,0,0,0-1.033.188,4.843,4.843,0,0,1-.094.657q-.614-.073-1.221-.188a.8.8,0,0,1,0-.564.68.68,0,0,0-.423.188.37.37,0,0,1-.188-.094,5.542,5.542,0,0,1,.517-.939.668.668,0,0,0-.47-.094.678.678,0,0,1-.235.657,8.19,8.19,0,0,1-.61-.564q.261-.059.517-.094a.322.322,0,0,0-.235-.329.51.51,0,0,1,.47.047,1.2,1.2,0,0,1,.657-.235.663.663,0,0,0,.188-.235.268.268,0,0,0,.235-.094,1.268,1.268,0,0,0,.094-1.315.368.368,0,0,0-.329-.188,1.086,1.086,0,0,0-1.221,0,.412.412,0,0,1-.329-.094,1,1,0,0,1-.047.564,35.777,35.777,0,0,0-3.663.094h-.282q-.155-.126,0-.235a.156.156,0,0,0-.235.047.235.235,0,0,1,0-.282,4.637,4.637,0,0,1,.892-.047.407.407,0,0,0-.188-.47,1.247,1.247,0,0,1,.657-.282q-.151-.12-.282-.235a28.3,28.3,0,0,0,4.6-.188,6.066,6.066,0,0,1,1.08-.657,5.362,5.362,0,0,0,.517.657,1.341,1.341,0,0,0,1.644-.282,2.248,2.248,0,0,0,.094-1.221.248.248,0,0,0-.235-.188,1.36,1.36,0,0,0-1.738-.094q-.241.411-.517.8l-1.127.657q-2.16.07-4.32.047,2.088-.14,4.226-.094a.694.694,0,0,0,0-.423.741.741,0,0,0,.376-.188.3.3,0,0,1-.376-.094l.423-.517q.58.171.61-.47a.291.291,0,0,0,.282-.094.991.991,0,0,0-.751-.47,1.47,1.47,0,0,1-.235.845,1.146,1.146,0,0,1-.61.094V21.35a2.173,2.173,0,0,1-.751-.188.291.291,0,0,0-.094-.282,8.978,8.978,0,0,0-.564.8q.027.256.047.517-.235-.376-.47,0-.339-.138-.235-.423a24.054,24.054,0,0,0-3.005,0q-.116.238-.282.047a1.372,1.372,0,0,0,0,.329,3.049,3.049,0,0,1-.751.047q.047,3.734-.094,7.42V18.626H11.616q-.047,5.565.094,11.082V29.8a2.341,2.341,0,0,0-.751-.094.515.515,0,0,0,.047-.47Q9.121,23.966,7.389,18.626a11.445,11.445,0,0,0-2.066.094Q3.546,24.007,1.707,29.239a.515.515,0,0,0,.047.47A.845.845,0,0,0,1,29.756a1.166,1.166,0,0,0-.047.7l-.094-.188a.827.827,0,0,0-.141.47,1.118,1.118,0,0,1-.235-.376A10.109,10.109,0,0,1,.11,28.488a.212.212,0,0,0-.141-.094Q-.171,26.8-.265,25.2A5.074,5.074,0,0,1-.5,24.449V23.7a16.616,16.616,0,0,1,.423-3.005q.07-.938.047-1.878a.433.433,0,0,1,.094-.376H.157q.161-.225.329-.47a11.492,11.492,0,0,1,.751-2.442.4.4,0,0,1,.188.564.436.436,0,0,0,.141-.329,1.694,1.694,0,0,0-.282-.47.99.99,0,0,0,.188-.7A23.029,23.029,0,0,1,14.527,2a.792.792,0,0,1,.376.047q-.16.143.094.188a.31.31,0,0,0,.047.423.469.469,0,0,1,.235-.329.764.764,0,0,1,0-.517,7.355,7.355,0,0,1,1.878-.282V1.251A19.726,19.726,0,0,0,19.88.735,17.4,17.4,0,0,0,22.134.5a20.229,20.229,0,0,1,2.63.282q.3-.054.61-.094A18.167,18.167,0,0,0,27.206.97a1.789,1.789,0,0,1,.7.376,1.709,1.709,0,0,1,.329-.188A3.79,3.79,0,0,0,29.742,1.439Z" transform="translate(0.5 -0.5)" fill="#bffe72" fill-rule="evenodd"/>
    </g>
    <g id="Group_8" data-name="Group 8" transform="translate(25.797 -0.406)">
      <path id="Path_132" data-name="Path 132" d="M279.5.591V.5a4.827,4.827,0,0,1,1.409.188Q280.2.669,279.5.591Z" transform="translate(-279.5 -0.497)" fill="#031000" fill-rule="evenodd" opacity="0.188"/>
    </g>
    <g id="Group_9" data-name="Group 9" transform="translate(17.908 -0.313)">
      <path id="Path_133" data-name="Path 133" d="M197.1,1.489a4.022,4.022,0,0,1-1.6.282A4.022,4.022,0,0,1,197.1,1.489Z" transform="translate(-195.5 -1.488)" fill="#27381a" fill-rule="evenodd" opacity="0.384"/>
    </g>
    <g id="Group_10" data-name="Group 10" transform="translate(16.405 0.064)">
      <path id="Path_134" data-name="Path 134" d="M180.627,5.5a2.913,2.913,0,0,1-1.127.282A2.913,2.913,0,0,1,180.627,5.5Z" transform="translate(-179.5 -5.5)" fill="#000e00" fill-rule="evenodd" opacity="0.047"/>
    </g>
    <g id="Group_11" data-name="Group 11" transform="translate(36.316 3.632)">
      <path id="Path_135" data-name="Path 135" d="M391.5,43.5a17.454,17.454,0,0,1,2.348,1.878,1.584,1.584,0,0,1-.751-.094l.188-.188a.81.81,0,0,1-.47-.517,1.925,1.925,0,0,0-.751-.282Q391.758,43.9,391.5,43.5Z" transform="translate(-391.5 -43.5)" fill="#b8eb77" fill-rule="evenodd" opacity="0.98"/>
    </g>
    <g id="Group_12" data-name="Group 12" transform="translate(39.509 6.262)">
      <path id="Path_136" data-name="Path 136" d="M425.5,71.5a18.278,18.278,0,0,1,3.1,3.851.65.65,0,0,0-.376-.094,2.234,2.234,0,0,0-.235-.564q-.061.524-.235.047.2-.333-.141-.141a2.209,2.209,0,0,0-.47-1.127,1.965,1.965,0,0,0-.517-.094.855.855,0,0,0,.094-.47.727.727,0,0,1-.47,0,.456.456,0,0,1-.094-.517.736.736,0,0,0-.564-.282l.188-.094A.851.851,0,0,1,425.5,71.5Z" transform="translate(-425.5 -71.5)" fill="#bdf279" fill-rule="evenodd"/>
    </g>
    <g id="Group_13" data-name="Group 13" transform="translate(0.064 0.345)">
      <path id="Path_137" data-name="Path 137" d="M21.842,8.5q-.952.349-1.878.751A23.029,23.029,0,0,0,6.909,21.836a14,14,0,0,0-1.315,3.851H5.5A23.407,23.407,0,0,1,14.234,12.21,21.537,21.537,0,0,1,21.842,8.5Z" transform="translate(-5.5 -8.5)" fill="#091402" fill-rule="evenodd" opacity="0.137"/>
    </g>
    <g id="Group_14" data-name="Group 14" transform="translate(27.206 -0.218)">
      <path id="Path_138" data-name="Path 138" d="M294.5,2.5a23.511,23.511,0,0,1,15.919,10.707,23.946,23.946,0,0,1,1.268,2.536q-.666-1.1-1.268-2.254-.261-.339-.517-.657a18.281,18.281,0,0,0-3.1-3.851l-.845-.751a17.456,17.456,0,0,0-2.348-1.878,19.842,19.842,0,0,0-6.574-3.1Q295.771,2.861,294.5,2.5Z" transform="translate(-294.5 -2.5)" fill="#0b1503" fill-rule="evenodd" opacity="0.122"/>
    </g>
    <g id="Group_15" data-name="Group 15" transform="translate(35.565 11.049)">
      <path id="Path_139" data-name="Path 139" d="M383.5,122.467a11.624,11.624,0,0,1,1.784.094.716.716,0,0,1,.564.282,13.941,13.941,0,0,0-1.6-.188Z" transform="translate(-383.5 -122.463)" fill="#b9e67b" fill-rule="evenodd"/>
    </g>
    <g id="Group_16" data-name="Group 16" transform="translate(30.681 11.046)">
      <path id="Path_140" data-name="Path 140" d="M336.384,122.443l.751.188q-2.82-.032-5.635.094a6.281,6.281,0,0,1,1.221-.235Q334.552,122.42,336.384,122.443Z" transform="translate(-331.5 -122.437)" fill="#3c4f23" fill-rule="evenodd"/>
    </g>
    <g id="Group_17" data-name="Group 17" transform="translate(29.648 11.233)">
      <path id="Path_141" data-name="Path 141" d="M327.168,124.436a13.951,13.951,0,0,1,1.6.188.152.152,0,0,0,.188.094q.171.291-.235.282a13.765,13.765,0,0,0-2.019-.329q-1.878-.094-3.757,0a1.72,1.72,0,0,0-.564.141h-.094q-.9.05-1.784.141a5.338,5.338,0,0,1,.845-.423h.188Q324.348,124.4,327.168,124.436Z" transform="translate(-320.5 -124.43)" fill="#35382d" fill-rule="evenodd"/>
    </g>
    <g id="Group_18" data-name="Group 18" transform="translate(26.079 11.334)">
      <path id="Path_142" data-name="Path 142" d="M286.914,125.5a5.339,5.339,0,0,0-.845.423q.885-.091,1.784-.141a14.415,14.415,0,0,0-4.79,1.6l-.376.094a.207.207,0,0,1-.188-.188,10.513,10.513,0,0,1,1.127-.8A13.262,13.262,0,0,1,286.914,125.5Z" transform="translate(-282.5 -125.5)" fill="#394326" fill-rule="evenodd"/>
    </g>
    <g id="Group_19" data-name="Group 19" transform="translate(25.523 11.501)">
      <path id="Path_143" data-name="Path 143" d="M293.472,130.307a2.426,2.426,0,0,1-1.221,2.113,14.624,14.624,0,0,1-5.635,1.6,16.206,16.206,0,0,1-8.359-1.315,3.967,3.967,0,0,1-1.456-1.268,1.455,1.455,0,0,1-.188-1.127,7.779,7.779,0,0,1,.517-.845q.287-.236.564-.47a14.417,14.417,0,0,1,4.79-1.6h.094a20.586,20.586,0,0,1,7.232.517,7.13,7.13,0,0,1,3.334,1.831A2.455,2.455,0,0,0,293.472,130.307Z" transform="translate(-276.574 -127.281)" fill="#bbf276" fill-rule="evenodd"/>
    </g>
    <g id="Group_20" data-name="Group 20" transform="translate(44.393 13.024)">
      <path id="Path_144" data-name="Path 144" d="M477.5,143.5a10.24,10.24,0,0,1,1.127,2.911l-.188-.188A17.473,17.473,0,0,0,477.5,143.5Z" transform="translate(-477.5 -143.5)" fill="#020e00" fill-rule="evenodd" opacity="0.114"/>
    </g>
    <g id="Group_21" data-name="Group 21" transform="translate(0.157 13.682)">
      <path id="Path_145" data-name="Path 145" d="M7.815,150.5a.99.99,0,0,1-.188.7,1.694,1.694,0,0,1,.282.47.436.436,0,0,1-.141.329.4.4,0,0,0-.188-.564,11.492,11.492,0,0,0-.751,2.442q-.167.244-.329.47A14,14,0,0,1,7.815,150.5Z" transform="translate(-6.5 -150.5)" fill="#b7e975" fill-rule="evenodd"/>
    </g>
    <g id="Group_22" data-name="Group 22" transform="translate(42.045 14.189)">
      <path id="Path_146" data-name="Path 146" d="M453.251,157.739a5.149,5.149,0,0,0-.657.188l-.094-.094a.655.655,0,0,1,.376-.282,2.384,2.384,0,0,0,0-1.315q.02-.676.329,0A12.079,12.079,0,0,1,453.251,157.739Z" transform="translate(-452.5 -155.898)" fill="#35332f" fill-rule="evenodd"/>
    </g>
    <g id="Group_23" data-name="Group 23" transform="translate(45.52 15.936)">
      <path id="Path_147" data-name="Path 147" d="M489.5,174.5a4.677,4.677,0,0,1,.376,1.409A4.558,4.558,0,0,1,489.5,174.5Z" transform="translate(-489.5 -174.5)" fill="#0b1405" fill-rule="evenodd" opacity="0.145"/>
    </g>
    <g id="Group_24" data-name="Group 24" transform="translate(20.726 16.5)">
      <path id="Path_148" data-name="Path 148" d="M227.378,181.161a1.271,1.271,0,0,0-1.878-.094v-.376a1.794,1.794,0,0,1,1.6,0A.6.6,0,0,1,227.378,181.161Z" transform="translate(-225.5 -180.504)" fill="#b3e077" fill-rule="evenodd"/>
    </g>
    <g id="Group_25" data-name="Group 25" transform="translate(25.134 13.4)">
      <path id="Path_149" data-name="Path 149" d="M273.382,147.782a7.79,7.79,0,0,0-.517.845,1.455,1.455,0,0,0,.188,1.127,3.967,3.967,0,0,0,1.456,1.268,16.206,16.206,0,0,0,8.359,1.315,14.623,14.623,0,0,0,5.635-1.6,2.426,2.426,0,0,0,1.221-2.113,2.383,2.383,0,0,1,0,1.315.655.655,0,0,0-.376.282l.094.094a5.15,5.15,0,0,1,.657-.188v.188a1.226,1.226,0,0,0-.141.47q-.024,1.387-.141,2.724a27.22,27.22,0,0,0-.094-3.193.1.1,0,0,0-.094.094,3.269,3.269,0,0,0-.657.657,1.16,1.16,0,0,0-.657.376,22,22,0,0,1-2.63.939,16.375,16.375,0,0,1-2.818.376q-1.691.024-3.381-.047a10.644,10.644,0,0,0-1.972-.235,9.3,9.3,0,0,1-4.32-1.784.083.083,0,0,0-.094-.094.986.986,0,0,0-.235-.282,18.224,18.224,0,0,0,.047,3.193,1.26,1.26,0,0,0,.329.845,5,5,0,0,0,2.677,1.5,1.975,1.975,0,0,0,.845.329,5.705,5.705,0,0,0,1.6.235v.094a9.717,9.717,0,0,0-1.5,0,13.622,13.622,0,0,0,1.691.376q.08.13-.188.094H277.8a13.052,13.052,0,0,1-3.945-1.456,7.178,7.178,0,0,1-.751-.61l-.188-.282a.586.586,0,0,0-.235-.751q-.132.191-.235.376-.024-2.771.047-5.541a8.021,8.021,0,0,0,.376-.845,2.4,2.4,0,0,1,.423-.376A.29.29,0,0,1,273.382,147.782Z" transform="translate(-272.437 -147.5)" fill="#363d28" fill-rule="evenodd"/>
    </g>
    <g id="Group_26" data-name="Group 26" transform="translate(26.549 12.14)">
      <path id="Path_150" data-name="Path 150" d="M297.549,139.475q-1.876.117-3.757.094h-.845a15.694,15.694,0,0,1-4.32-1.174,3.671,3.671,0,0,1-1.08-1.08,2.864,2.864,0,0,1,0-1.033,4.6,4.6,0,0,1,2.113-1.456,17.82,17.82,0,0,1,6.856-.657,11.127,11.127,0,0,1,5.166,1.409,1.447,1.447,0,0,1,0,2.536A11.687,11.687,0,0,1,297.549,139.475Z" transform="translate(-287.5 -134.082)" fill="#374026" fill-rule="evenodd"/>
    </g>
    <g id="Group_27" data-name="Group 27" transform="translate(27.018 12.638)">
      <path id="Path_151" data-name="Path 151" d="M300.859,143.815q-2.161-.008-4.32-.094a8.021,8.021,0,0,1-3.8-1.409,1.038,1.038,0,0,1,0-1.315,8.826,8.826,0,0,1,1.268-.8,14.814,14.814,0,0,1,5.4-.8,22.662,22.662,0,0,1,4.273.423,11.138,11.138,0,0,1,1.878.751q1.569.905.188,2.066A10.488,10.488,0,0,1,300.859,143.815Z" transform="translate(-292.5 -139.391)" fill="#bffd72" fill-rule="evenodd"/>
    </g>
    <g id="Group_28" data-name="Group 28" transform="translate(45.332 15.748)">
      <path id="Path_152" data-name="Path 152" d="M487.5,172.5l.188.188a4.558,4.558,0,0,0,.376,1.409,3.491,3.491,0,0,1,.282,1.221v.751q-.307-1.226-.7-2.442Z" transform="translate(-487.5 -172.5)" fill="#90b562" fill-rule="evenodd" opacity="0.878"/>
    </g>
    <g id="Group_29" data-name="Group 29" transform="translate(13.972 16.693)">
      <path id="Path_153" data-name="Path 153" d="M162.22,183.028q.43,1.8-1.409,1.644a1.5,1.5,0,0,1-.564-.517.268.268,0,0,0-.094-.235,4.625,4.625,0,0,0-1.315,0q-.552.808-1.033,1.644a10.976,10.976,0,0,0-.657.986,32.155,32.155,0,0,1-3.475,0,.258.258,0,0,1-.047-.329q1.656-.116,3.334-.141l1.691-2.63,1.5-.094a3.666,3.666,0,0,0,.188-.423A1.271,1.271,0,0,1,162.22,183.028Z" transform="translate(-153.588 -182.564)" fill="#0f1707" fill-rule="evenodd"/>
    </g>
    <g id="Group_30" data-name="Group 30" transform="translate(25.7 16.593)">
      <path id="Path_154" data-name="Path 154" d="M278.66,181.5a9.3,9.3,0,0,0,4.32,1.784,10.526,10.526,0,0,0,1.6.329,25.191,25.191,0,0,0,3.757-.047,16.376,16.376,0,0,0,2.818-.376,8.781,8.781,0,0,0,1.033-.141,5.3,5.3,0,0,1,1.6-.517v-.282a1.16,1.16,0,0,1,.657-.376A1.643,1.643,0,0,0,295,181.5a22.634,22.634,0,0,1,.094,2.911,1.943,1.943,0,0,1-.094.47.256.256,0,0,0-.188.282,7.355,7.355,0,0,1-3.569,1.784,17.7,17.7,0,0,0-2.911.376,1.072,1.072,0,0,0-1.08,0,1.233,1.233,0,0,0-.892,0,.927.927,0,0,1-.47-.188,12,12,0,0,1-2.066.094,5.7,5.7,0,0,1-1.6-.235,1.976,1.976,0,0,1-.845-.329,18.922,18.922,0,0,1-2.066-1.174.418.418,0,0,0,.188-.141.259.259,0,0,0-.376,0,2.4,2.4,0,0,1-.376-.423,2.388,2.388,0,0,1,1.221.235,1.631,1.631,0,0,0,.47-.094l.235-.564a.619.619,0,0,0-.047-.564.863.863,0,0,0-1.033-.564.567.567,0,0,0-.47.188,7.236,7.236,0,0,0-.141,1.033q-.1.308-.329.094a7.376,7.376,0,0,1-.188-1.878A4.445,4.445,0,0,1,278.66,181.5Z" transform="translate(-278.469 -181.5)" fill="#bffd72" fill-rule="evenodd"/>
    </g>
    <g id="Group_31" data-name="Group 31" transform="translate(31.526 17.251)">
      <path id="Path_155" data-name="Path 155" d="M340.5,188.6a31.937,31.937,0,0,1,4.884,0,13.764,13.764,0,0,1-2.536.188A11.249,11.249,0,0,1,340.5,188.6Z" transform="translate(-340.5 -188.505)" fill="#36372d" fill-rule="evenodd"/>
    </g>
    <g id="Group_32" data-name="Group 32" transform="translate(31.057 16.969)">
      <path id="Path_156" data-name="Path 156" d="M335.5,185.5q2.159.086,4.32.094a17.084,17.084,0,0,1-4.32-.094Z" transform="translate(-335.5 -185.5)" fill="#bae67f" fill-rule="evenodd"/>
    </g>
    <g id="Group_33" data-name="Group 33" transform="translate(32.841 17.532)">
      <path id="Path_157" data-name="Path 157" d="M358.257,191.5v.094a20.9,20.9,0,0,1-3.757,0Q356.381,191.617,358.257,191.5Z" transform="translate(-354.5 -191.5)" fill="#9fc270" fill-rule="evenodd"/>
    </g>
    <g id="Group_34" data-name="Group 34" transform="translate(42.233 16.218)">
      <path id="Path_158" data-name="Path 158" d="M454.594,177.594a.1.1,0,0,1,.094-.094,27.213,27.213,0,0,1,.094,3.193.632.632,0,0,1-.282.564,1.949,1.949,0,0,0,.094-.47A13.623,13.623,0,0,0,454.594,177.594Z" transform="translate(-454.5 -177.5)" fill="#375319" fill-rule="evenodd"/>
    </g>
    <g id="Group_35" data-name="Group 35" transform="translate(30.305 17.532)">
      <path id="Path_159" data-name="Path 159" d="M329.191,191.594h.845a20.9,20.9,0,0,0,3.757,0,1.011,1.011,0,0,0,.939-.094,1.947,1.947,0,0,0,.094.235,13.431,13.431,0,0,1-4.931.141,5.163,5.163,0,0,1-1.644.047,1.82,1.82,0,0,1-.751-.282A15.272,15.272,0,0,1,329.191,191.594Z" transform="translate(-327.5 -191.5)" fill="#c0fc74" fill-rule="evenodd"/>
    </g>
    <g id="Group_36" data-name="Group 36" transform="translate(38.382 17.345)">
      <path id="Path_160" data-name="Path 160" d="M416.13,189.5v.282a5.3,5.3,0,0,0-1.6.517,8.779,8.779,0,0,1-1.033.141A22,22,0,0,0,416.13,189.5Z" transform="translate(-413.5 -189.5)" fill="#b6e37c" fill-rule="evenodd"/>
    </g>
    <g id="Group_37" data-name="Group 37" transform="translate(11.604 17.72)">
      <path id="Path_161" data-name="Path 161" d="M130.172,204.488a8.147,8.147,0,0,1-1.691.094q-.141-5.517-.094-11.082h1.784Z" transform="translate(-128.376 -193.5)" fill="#000a00" fill-rule="evenodd"/>
    </g>
    <g id="Group_38" data-name="Group 38" transform="translate(20.935 17.049)">
      <path id="Path_162" data-name="Path 162" d="M228.925,186.651q.542.893-.517,1.127a.7.7,0,0,1-.657-.939.713.713,0,0,1,.986-.423A.663.663,0,0,1,228.925,186.651Z" transform="translate(-227.725 -186.356)" fill="#b8ea78" fill-rule="evenodd"/>
    </g>
    <g id="Group_39" data-name="Group 39" transform="translate(21.101 17.294)">
      <path id="Path_163" data-name="Path 163" d="M230.533,189.014a1.232,1.232,0,0,1-.094.657.343.343,0,0,1-.141-.094.64.64,0,0,1-.7.235.463.463,0,0,1-.094-.235,1.79,1.79,0,0,0,.094-.564A2.214,2.214,0,0,1,230.533,189.014Z" transform="translate(-229.5 -188.964)" fill="#bffe70" fill-rule="evenodd"/>
    </g>
    <g id="Group_40" data-name="Group 40" transform="translate(41.67 16.311)">
      <path id="Path_164" data-name="Path 164" d="M449.157,178.5a13.622,13.622,0,0,1,0,3.193,22.651,22.651,0,0,0-.094-2.911,1.643,1.643,0,0,1-.564.376A3.271,3.271,0,0,1,449.157,178.5Z" transform="translate(-448.5 -178.5)" fill="#c0ed8f" fill-rule="evenodd"/>
    </g>
    <g id="Group_41" data-name="Group 41" transform="translate(25.514 16.218)">
      <path id="Path_165" data-name="Path 165" d="M276.768,177.782a11.4,11.4,0,0,0-.188,2.911,18.227,18.227,0,0,1-.047-3.193A.987.987,0,0,1,276.768,177.782Z" transform="translate(-276.485 -177.5)" fill="#b2d681" fill-rule="evenodd"/>
    </g>
    <g id="Group_42" data-name="Group 42" transform="translate(30.212 18.378)">
      <path id="Path_166" data-name="Path 166" d="M326.5,200.5a10.643,10.643,0,0,1,1.972.235q1.69.07,3.381.047a25.2,25.2,0,0,1-3.757.047A10.521,10.521,0,0,1,326.5,200.5Z" transform="translate(-326.5 -200.5)" fill="#3c501d" fill-rule="evenodd"/>
    </g>
    <g id="Group_43" data-name="Group 43" transform="translate(18.19 18.002)">
      <path id="Path_167" data-name="Path 167" d="M200.942,196.782a1.461,1.461,0,0,0-1.972.892.37.37,0,0,0,.094.188,6.447,6.447,0,0,0-.564.329q.481-.836,1.033-1.644a4.625,4.625,0,0,1,1.315,0A.268.268,0,0,1,200.942,196.782Z" transform="translate(-198.5 -196.5)" fill="#b9e97b" fill-rule="evenodd"/>
    </g>
    <g id="Group_44" data-name="Group 44" transform="translate(11.991 18.085)">
      <path id="Path_168" data-name="Path 168" d="M133.439,197.491h-.845v10.143h.845a2.4,2.4,0,0,1-.939.094V197.4A2.4,2.4,0,0,1,133.439,197.491Z" transform="translate(-132.5 -197.386)" fill="#9bc071" fill-rule="evenodd"/>
    </g>
    <g id="Group_45" data-name="Group 45" transform="translate(46.178 18.566)">
      <path id="Path_169" data-name="Path 169" d="M496.5,202.5a4.765,4.765,0,0,1,.188,1.315l-.188-.564Z" transform="translate(-496.5 -202.5)" fill="#000a00" fill-rule="evenodd" opacity="0.149"/>
    </g>
    <g id="Group_46" data-name="Group 46" transform="translate(12.085 18.19)">
      <path id="Path_170" data-name="Path 170" d="M134.251,198.5q.024,4.978-.047,9.955a1.841,1.841,0,0,0-.329.188H133.5V198.5Z" transform="translate(-133.5 -198.5)" fill="#c0fd74" fill-rule="evenodd"/>
    </g>
    <g id="Group_47" data-name="Group 47" transform="translate(12.461 18.19)">
      <path id="Path_171" data-name="Path 171" d="M137.876,198.5h.094v10.143h-.47a1.841,1.841,0,0,1,.329-.188Q137.9,203.478,137.876,198.5Z" transform="translate(-137.5 -198.5)" fill="#caf296" fill-rule="evenodd"/>
    </g>
    <g id="Group_48" data-name="Group 48" transform="translate(-0.5 18.753)">
      <path id="Path_172" data-name="Path 172" d="M-.218,204.5A13.424,13.424,0,0,1-.5,206.942v-1.033Q-.348,205.206-.218,204.5Z" transform="translate(0.5 -204.5)" fill="#071303" fill-rule="evenodd" opacity="0.206"/>
    </g>
    <g id="Group_49" data-name="Group 49" transform="translate(26.361 18.454)">
      <path id="Path_173" data-name="Path 173" d="M285.968,201.33a.863.863,0,0,1,1.033.564q.051,1.334-1.221.892A.906.906,0,0,1,285.968,201.33Z" transform="translate(-285.499 -201.313)" fill="#383e2b" fill-rule="evenodd"/>
    </g>
    <g id="Group_50" data-name="Group 50" transform="translate(26.826 18.934)">
      <path id="Path_174" data-name="Path 174" d="M290.553,206.431q.656-.068.376.517a1.214,1.214,0,0,1-.47.047A1.13,1.13,0,0,1,290.553,206.431Z" transform="translate(-290.455 -206.424)" fill="#c0eb84" fill-rule="evenodd"/>
    </g>
    <g id="Group_51" data-name="Group 51" transform="translate(25.587 16.499)">
      <path id="Path_175" data-name="Path 175" d="M277.474,180.5a.083.083,0,0,1,.094.094,4.444,4.444,0,0,0-.188,1.315,7.373,7.373,0,0,0,.188,1.878q.233.214.329-.094a7.226,7.226,0,0,1,.141-1.033.567.567,0,0,1,.47-.188.905.905,0,0,0-.188,1.456q1.272.441,1.221-.892a.619.619,0,0,1,.047.564l-.235.564a1.632,1.632,0,0,1-.47.094,2.388,2.388,0,0,0-1.221-.235,2.4,2.4,0,0,0,.376.423.259.259,0,0,1,.376,0,.419.419,0,0,1-.188.141,18.923,18.923,0,0,0,2.066,1.174,5,5,0,0,1-2.677-1.5,1.26,1.26,0,0,1-.329-.845A11.4,11.4,0,0,1,277.474,180.5Z" transform="translate(-277.264 -180.5)" fill="#bef17c" fill-rule="evenodd"/>
    </g>
    <g id="Group_52" data-name="Group 52" transform="translate(-0.5 17.908)">
      <path id="Path_176" data-name="Path 176" d="M-.03,195.5q.023.94-.047,1.878A16.615,16.615,0,0,0-.5,200.384v-1.6a13.424,13.424,0,0,0,.282-2.442A1.712,1.712,0,0,1-.03,195.5Z" transform="translate(0.5 -195.5)" fill="#9ac565" fill-rule="evenodd" opacity="0.918"/>
    </g>
    <g id="Group_53" data-name="Group 53" transform="translate(46.178 19.317)">
      <path id="Path_177" data-name="Path 177" d="M496.5,210.5l.188.564h.094v1.409a.521.521,0,0,1-.141-.282Q496.542,211.347,496.5,210.5Z" transform="translate(-496.5 -210.5)" fill="#80a556" fill-rule="evenodd" opacity="0.769"/>
    </g>
    <g id="Group_54" data-name="Group 54" transform="translate(15.56 20.456)">
      <path id="Path_178" data-name="Path 178" d="M178.3,223q.6,2.026-1.5,1.691a5.366,5.366,0,0,1-.517-.657,6.067,6.067,0,0,0-1.08.657q-2.294.137-4.6.094a.235.235,0,0,1,0-.376q2.161.024,4.32-.047l1.127-.657q.276-.387.517-.8A1.36,1.36,0,0,1,178.3,223Z" transform="translate(-170.5 -222.634)" fill="#040b01" fill-rule="evenodd"/>
    </g>
    <g id="Group_55" data-name="Group 55" transform="translate(36.598 20.256)">
      <path id="Path_179" data-name="Path 179" d="M399.947,220.5v.282a.409.409,0,0,1,.47.188h-.094q-.308-.083-.47.282a10.151,10.151,0,0,1-5.072,1.878H394.5v-.47a9.813,9.813,0,0,0,1.878-.376A7.356,7.356,0,0,0,399.947,220.5Z" transform="translate(-394.5 -220.5)" fill="#374027" fill-rule="evenodd"/>
    </g>
    <g id="Group_56" data-name="Group 56" transform="translate(21.755 20.808)">
      <path id="Path_180" data-name="Path 180" d="M236.843,226.387q1.08-.118.986.939-.606.868-1.315.094A.88.88,0,0,1,236.843,226.387Z" transform="translate(-236.464 -226.375)" fill="#b7ed74" fill-rule="evenodd"/>
    </g>
    <g id="Group_57" data-name="Group 57" transform="translate(21.853 20.82)">
      <path id="Path_181" data-name="Path 181" d="M239,226.5a.248.248,0,0,1,.235.188,2.248,2.248,0,0,1-.094,1.221,1.341,1.341,0,0,1-1.644.282Q239.607,228.527,239,226.5Z" transform="translate(-237.5 -226.5)" fill="#afdd76" fill-rule="evenodd"/>
    </g>
    <g id="Group_58" data-name="Group 58" transform="translate(25.504 20.538)">
      <path id="Path_182" data-name="Path 182" d="M276.483,223.5l.188.282a12.9,12.9,0,0,0-.188,3.1,28.82,28.82,0,0,1-.094-3.287A.083.083,0,0,1,276.483,223.5Z" transform="translate(-276.378 -223.5)" fill="#afd482" fill-rule="evenodd"/>
    </g>
    <g id="Group_59" data-name="Group 59" transform="translate(25.587 20.82)">
      <path id="Path_183" data-name="Path 183" d="M277.473,226.5a7.158,7.158,0,0,0,.751.61,13.05,13.05,0,0,0,3.945,1.456,1.313,1.313,0,0,0,.7.188,12.932,12.932,0,0,0,4.367,0,1.958,1.958,0,0,1,.845-.094.644.644,0,0,0,.47-.094,10.15,10.15,0,0,0,5.072-1.878.524.524,0,0,0,.282-.094,14.141,14.141,0,0,1,.047,2.818.846.846,0,0,0-.329.657.463.463,0,0,0-.282.047q.161.1,0,.235a6.606,6.606,0,0,1-.939.845,9.236,9.236,0,0,1-3.757,1.127q-1.454.1-2.911.188-1.692-.076-3.381-.188-.356-.175-.751-.329a14.455,14.455,0,0,1-2.16-.517,3.242,3.242,0,0,1-2.16-1.878A12.894,12.894,0,0,1,277.473,226.5Z" transform="translate(-277.263 -226.5)" fill="#bffd72" fill-rule="evenodd"/>
    </g>
    <g id="Group_60" data-name="Group 60" transform="translate(24.929 14.245)">
      <path id="Path_184" data-name="Path 184" d="M270.464,156.5q-.14,9.433-.094,18.878-.14-3.028-.094-6.1Q270.183,162.838,270.464,156.5Z" transform="translate(-270.253 -156.5)" fill="#c6f788" fill-rule="evenodd"/>
    </g>
    <g id="Group_61" data-name="Group 61" transform="translate(31.057 22.04)">
      <path id="Path_185" data-name="Path 185" d="M342.92,239.5a9.816,9.816,0,0,1-1.878.376,3.92,3.92,0,0,0-.845.094.269.269,0,0,0-.282.094H337.1a1.56,1.56,0,0,0-.751-.094,1.207,1.207,0,0,0-.658-.094H335.5v-.094a12,12,0,0,0,2.066-.094.927.927,0,0,0,.47.188,1.233,1.233,0,0,1,.892,0,1.072,1.072,0,0,1,1.08,0A17.7,17.7,0,0,1,342.92,239.5Z" transform="translate(-335.5 -239.5)" fill="#c2f47d" fill-rule="evenodd"/>
    </g>
    <g id="Group_62" data-name="Group 62" transform="translate(29.554 22.387)">
      <path id="Path_186" data-name="Path 186" d="M321,243.219h.188v.376a13.615,13.615,0,0,1-1.691-.376A9.713,9.713,0,0,1,321,243.219Z" transform="translate(-319.5 -243.19)" fill="#34382b" fill-rule="evenodd"/>
    </g>
    <g id="Group_63" data-name="Group 63" transform="translate(15.654 22.51)">
      <path id="Path_187" data-name="Path 187" d="M176.1,244.5a28.3,28.3,0,0,1-4.6.188v-.094Q173.808,244.637,176.1,244.5Z" transform="translate(-171.5 -244.5)" fill="#9fc968" fill-rule="evenodd"/>
    </g>
    <g id="Group_64" data-name="Group 64" transform="translate(31.526 22.5)">
      <path id="Path_188" data-name="Path 188" d="M340.876,244.4a1.56,1.56,0,0,1,.751.094.676.676,0,0,1-1.127-.047A.792.792,0,0,1,340.876,244.4Z" transform="translate(-340.5 -244.39)" fill="#363d2b" fill-rule="evenodd"/>
    </g>
    <g id="Group_65" data-name="Group 65" transform="translate(35.753 22.416)">
      <path id="Path_189" data-name="Path 189" d="M386.345,243.5v.47h.282a.644.644,0,0,1-.47.094,1.226,1.226,0,0,0-.47-.141.368.368,0,0,1-.188-.329A3.919,3.919,0,0,1,386.345,243.5Z" transform="translate(-385.5 -243.5)" fill="#878e7c" fill-rule="evenodd"/>
    </g>
    <g id="Group_66" data-name="Group 66" transform="translate(31.057 22.406)">
      <path id="Path_190" data-name="Path 190" d="M335.688,243.4a1.208,1.208,0,0,1,.658.094.792.792,0,0,0-.376.047.676.676,0,0,0,1.127.047h1.315a.258.258,0,0,1-.188.282l-1.127-.094a.633.633,0,0,1-.376.188,4.026,4.026,0,0,1-1.221-.094q.268.036.188-.094Z" transform="translate(-335.5 -243.392)" fill="#8a917f" fill-rule="evenodd"/>
    </g>
    <g id="Group_67" data-name="Group 67" transform="translate(36.504 20.726)">
      <path id="Path_191" data-name="Path 191" d="M399.417,225.5h.094a17.5,17.5,0,0,1,.047,3.1,2.04,2.04,0,0,1-.376.657.792.792,0,0,0-.047.376.608.608,0,0,1,.423.094,25.589,25.589,0,0,1,0,3.1.31.31,0,0,1-.141.188q.024-1.644-.047-3.287a6.689,6.689,0,0,1-2.865,1.6.663.663,0,0,1,.188-.235,1.668,1.668,0,0,0-1.127.282q-1.029.164-2.066.235l.47-.188a9.236,9.236,0,0,0,3.757-1.127,3.5,3.5,0,0,0,1.55-1.315A23.367,23.367,0,0,0,399.417,225.5Z" transform="translate(-393.5 -225.5)" fill="#384523" fill-rule="evenodd"/>
    </g>
    <g id="Group_68" data-name="Group 68" transform="translate(32.278 22.503)">
      <path id="Path_192" data-name="Path 192" d="M351.975,244.433a.368.368,0,0,0,.188.329,1.226,1.226,0,0,1,.47.141,1.958,1.958,0,0,0-.845.094,28.826,28.826,0,0,1-3.287-.094.633.633,0,0,0,.376-.188l1.127.094a.258.258,0,0,0,.188-.282h.282v.282a.682.682,0,0,0,.61-.188q.357.375.61-.094A.269.269,0,0,1,351.975,244.433Z" transform="translate(-348.5 -244.426)" fill="#384426" fill-rule="evenodd"/>
    </g>
    <g id="Group_69" data-name="Group 69" transform="translate(34.25 22.604)">
      <path id="Path_193" data-name="Path 193" d="M369.5,245.5h1.221q-.254.469-.61.094a.682.682,0,0,1-.611.188Z" transform="translate(-369.5 -245.5)" fill="#7e8775" fill-rule="evenodd"/>
    </g>
    <g id="Group_70" data-name="Group 70" transform="translate(30.493 22.886)">
      <path id="Path_194" data-name="Path 194" d="M329.5,248.5h.564a4.024,4.024,0,0,0,1.221.094,28.816,28.816,0,0,0,3.287.094,12.932,12.932,0,0,1-4.367,0A1.313,1.313,0,0,1,329.5,248.5Z" transform="translate(-329.5 -248.5)" fill="#c4f384" fill-rule="evenodd"/>
    </g>
    <g id="Group_71" data-name="Group 71" transform="translate(26.351 22.799)">
      <path id="Path_195" data-name="Path 195" d="M286.815,248.606q.019-1.05-1.033-.845a.433.433,0,0,0,.094.376.344.344,0,0,0,.282.47q.514-.183.094-.564a.268.268,0,0,1,.235.094q.18.666-.517.7a.58.58,0,0,0,.845-.141.636.636,0,0,1-.657.47q-1.1-.274-.61-1.315a.817.817,0,0,1,1.221,0A.739.739,0,0,1,286.815,248.606Z" transform="translate(-285.397 -247.58)" fill="#3c4629" fill-rule="evenodd"/>
    </g>
    <g id="Group_72" data-name="Group 72" transform="translate(26.815 23.261)">
      <path id="Path_196" data-name="Path 196" d="M290.729,252.492q.42.38-.094.564a.344.344,0,0,1-.282-.47A.65.65,0,0,1,290.729,252.492Z" transform="translate(-290.338 -252.492)" fill="#bcef82" fill-rule="evenodd"/>
    </g>
    <g id="Group_73" data-name="Group 73" transform="translate(26.728 22.946)">
      <path id="Path_197" data-name="Path 197" d="M290.452,250.024v.094a.58.58,0,0,1-.845.141q.7-.038.517-.7a.268.268,0,0,0-.235-.094.65.65,0,0,0-.376.094.433.433,0,0,1-.094-.376Q290.471,248.975,290.452,250.024Z" transform="translate(-289.41 -249.146)" fill="#36362c" fill-rule="evenodd"/>
    </g>
    <g id="Group_74" data-name="Group 74" transform="translate(40.73 20.71)">
      <path id="Path_198" data-name="Path 198" d="M440.19,225.352a23.363,23.363,0,0,1-.141,3.475,3.5,3.5,0,0,1-1.55,1.315,6.608,6.608,0,0,0,.939-.845q.161-.13,0-.235a.464.464,0,0,1,.282-.047.846.846,0,0,1,.329-.657A14.137,14.137,0,0,0,440,225.54a.524.524,0,0,1-.282.094Q439.883,225.27,440.19,225.352Z" transform="translate(-438.5 -225.337)" fill="#bff082" fill-rule="evenodd"/>
    </g>
    <g id="Group_75" data-name="Group 75" transform="translate(15.091 23.543)">
      <path id="Path_199" data-name="Path 199" d="M169.539,255.594a.745.745,0,0,0-.282.564H165.5a35.774,35.774,0,0,1,3.663-.094,1,1,0,0,0,.047-.564A.412.412,0,0,0,169.539,255.594Z" transform="translate(-165.5 -255.5)" fill="#c0eb8e" fill-rule="evenodd"/>
    </g>
    <g id="Group_76" data-name="Group 76" transform="translate(15.004 23.449)">
      <path id="Path_200" data-name="Path 200" d="M169.925,254.689a1.291,1.291,0,0,1,0,1.6.932.932,0,0,1-1.5-.564q-1.879.024-3.757-.047a.3.3,0,0,1,0-.423h3.757a.745.745,0,0,1,.282-.564A1.086,1.086,0,0,1,169.925,254.689Z" transform="translate(-164.579 -254.501)" fill="#0a1203" fill-rule="evenodd"/>
    </g>
    <g id="Group_77" data-name="Group 77" transform="translate(42.045 16.218)">
      <path id="Path_201" data-name="Path 201" d="M453.246,177.5q.024,8.124-.047,16.248l-.094.094-.094-3.193a1.213,1.213,0,0,0-.517-.282.615.615,0,0,1,.282-.282.926.926,0,0,0,.094-.564.31.31,0,0,0,.141-.188,25.589,25.589,0,0,0,0-3.1.608.608,0,0,0-.423-.094.792.792,0,0,1,.047-.376,2.039,2.039,0,0,0,.376-.657,17.5,17.5,0,0,0-.047-3.1.409.409,0,0,0-.47-.188v-.282a.256.256,0,0,1,.188-.282.633.633,0,0,0,.282-.564q.117-1.337.141-2.724A1.228,1.228,0,0,1,453.246,177.5Z" transform="translate(-452.495 -177.5)" fill="#36352f" fill-rule="evenodd"/>
    </g>
    <g id="Group_78" data-name="Group 78" transform="translate(19.222 23.915)">
      <path id="Path_202" data-name="Path 202" d="M209.678,259.462q1.32-.067.563.986Q209.112,260.465,209.678,259.462Z" transform="translate(-209.489 -259.458)" fill="#bff678" fill-rule="evenodd"/>
    </g>
    <g id="Group_79" data-name="Group 79" transform="translate(25.504 20.632)">
      <path id="Path_203" data-name="Path 203" d="M276.389,224.5a28.82,28.82,0,0,0,.094,3.287,3.242,3.242,0,0,0,2.16,1.878,8.771,8.771,0,0,0,2.536.845,3.052,3.052,0,0,0-.751.047l.188.188a9.315,9.315,0,0,1,2.066.423h-.094a13.93,13.93,0,0,1-5.072-1.409l-.845-.751a.9.9,0,0,0-.235-.188q-.07,1.549-.047,3.1Q276.518,228.215,276.389,224.5Z" transform="translate(-276.378 -224.5)" fill="#364224" fill-rule="evenodd"/>
    </g>
    <g id="Group_80" data-name="Group 80" transform="translate(20.35 23.637)">
      <path id="Path_204" data-name="Path 204" d="M221.5,256.5a.368.368,0,0,1,.329.188,1.268,1.268,0,0,1-.094,1.315.268.268,0,0,1-.235.094A1.291,1.291,0,0,0,221.5,256.5Z" transform="translate(-221.5 -256.5)" fill="#afdc75" fill-rule="evenodd"/>
    </g>
    <g id="Group_81" data-name="Group 81" transform="translate(-0.5 23.543)">
      <path id="Path_205" data-name="Path 205" d="M-.5,255.5a5.075,5.075,0,0,0,.235.751q.094,1.6.235,3.193l-.47-2.63Z" transform="translate(0.5 -255.5)" fill="#b5e679" fill-rule="evenodd" opacity="0.949"/>
    </g>
    <g id="Group_82" data-name="Group 82" transform="translate(1.671 17.709)">
      <path id="Path_206" data-name="Path 206" d="M31.906,204.47a9.04,9.04,0,0,1-1.784-.094q-.548-1.642-1.033-3.287-1.785-.023-3.569.047a11.81,11.81,0,0,0-.657,2.113,6.056,6.056,0,0,0-.47,1.127,7.688,7.688,0,0,1-1.691.094.515.515,0,0,1-.047-.47q1.839-5.232,3.616-10.519a11.442,11.442,0,0,1,2.066-.094q1.732,5.34,3.616,10.613A.515.515,0,0,1,31.906,204.47Z" transform="translate(-22.619 -193.376)" fill="#060e02" fill-rule="evenodd"/>
    </g>
    <g id="Group_83" data-name="Group 83" transform="translate(2.224 18.096)">
      <path id="Path_207" data-name="Path 207" d="M36.389,206.612a2.569,2.569,0,0,0,.188,1.033,1.585,1.585,0,0,1-.751-.094.8.8,0,0,0-.282-.47q-.394-1.063-.7-2.16a.956.956,0,0,0-.329-.47,29.1,29.1,0,0,0-4.039-.047.412.412,0,0,0-.094.329q-.426,1.514-.939,3.005a2.43,2.43,0,0,1-.939.094q.214-.948.517-1.878,1.454-4.221,2.958-8.406a3.429,3.429,0,0,1,1.362.047Q34.932,202.075,36.389,206.612Z" transform="translate(-28.5 -197.502)" fill="#bcf674" fill-rule="evenodd"/>
    </g>
    <g id="Group_84" data-name="Group 84" transform="translate(4.098 24.95)">
      <path id="Path_208" data-name="Path 208" d="M52.593,270.579q-1.973-.024-3.945.047a.9.9,0,0,1-.188.235.412.412,0,0,1,.094-.329A29.1,29.1,0,0,1,52.593,270.579Z" transform="translate(-48.457 -270.484)" fill="#96c060" fill-rule="evenodd"/>
    </g>
    <g id="Group_85" data-name="Group 85" transform="translate(4.525 18.937)">
      <path id="Path_209" data-name="Path 209" d="M54.644,206.461a.412.412,0,0,1,.329.094q.765,2.576,1.644,5.119a.37.37,0,0,1-.094.188A22.3,22.3,0,0,1,53,211.814a8.774,8.774,0,0,1,.657-2.066Q54.129,208.094,54.644,206.461Z" transform="translate(-53 -206.457)" fill="#081103" fill-rule="evenodd"/>
    </g>
    <g id="Group_86" data-name="Group 86" transform="translate(5.041 23.261)">
      <path id="Path_210" data-name="Path 210" d="M58.688,252.5v.564a13.6,13.6,0,0,0,2.254-.094.855.855,0,0,1-.094-.47,1.181,1.181,0,0,1,.188.751H58.5A1.667,1.667,0,0,1,58.688,252.5Z" transform="translate(-58.5 -252.5)" fill="#9ac268" fill-rule="evenodd"/>
    </g>
    <g id="Group_87" data-name="Group 87" transform="translate(5.229 22.228)">
      <path id="Path_211" data-name="Path 211" d="M62.66,242.439v.094a.855.855,0,0,0,.094.47,13.606,13.606,0,0,1-2.254.094v-.657a.268.268,0,0,0,.235-.094.945.945,0,0,1,.657-.845l.282.564q.192-.772.61.047Q62.049,242.839,62.66,242.439Z" transform="translate(-60.5 -241.5)" fill="#bffe70" fill-rule="evenodd"/>
    </g>
    <g id="Group_88" data-name="Group 88" transform="translate(5.229 20.537)">
      <path id="Path_212" data-name="Path 212" d="M61.439,223.488a.268.268,0,0,1,.235.094,4.073,4.073,0,0,1,.188.751.212.212,0,0,1,.141-.094q.293.939.657,1.878-.611.4-.376-.329-.418-.819-.61-.047l-.282-.564a.945.945,0,0,0-.657.845.268.268,0,0,1-.235.094Q60.971,224.792,61.439,223.488Z" transform="translate(-60.5 -223.487)" fill="#bcf574" fill-rule="evenodd"/>
    </g>
    <g id="Group_89" data-name="Group 89" transform="translate(6.168 19.974)">
      <path id="Path_213" data-name="Path 213" d="M71.064,218.815a.212.212,0,0,0-.141.094,4.072,4.072,0,0,0-.188-.751.268.268,0,0,0-.235-.094l.141-.563Q70.867,218.156,71.064,218.815Z" transform="translate(-70.5 -217.5)" fill="#acd479" fill-rule="evenodd"/>
    </g>
    <g id="Group_90" data-name="Group 90" transform="translate(14.057 24.201)">
      <path id="Path_214" data-name="Path 214" d="M155.251,262.5h.282a.3.3,0,0,0,0,.423q1.878.07,3.757.047a.932.932,0,0,0,1.5.564.663.663,0,0,1-.188.235,1.2,1.2,0,0,0-.657.235.51.51,0,0,0-.47-.047.322.322,0,0,1,.235.329q-.255.035-.517.094a8.18,8.18,0,0,0,.61.564.678.678,0,0,0,.235-.657.668.668,0,0,1,.47.094,5.541,5.541,0,0,0-.517.939.37.37,0,0,0,.188.094.68.68,0,0,1,.423-.188.8.8,0,0,0,0,.564q.607.114,1.221.188a4.844,4.844,0,0,0,.094-.657,2.708,2.708,0,0,1,1.033-.188.872.872,0,0,1,.564.188,1.049,1.049,0,0,0-1.6.751,12.078,12.078,0,0,1-1.5-.047l-1.691-1.691q-2.113-.07-4.226-.047,1.807-.117,3.663-.141a6.44,6.44,0,0,0,1.221-.235,1,1,0,0,0-.282-.751q-1.877-.117-3.757-.141A.853.853,0,0,1,155.251,262.5Z" transform="translate(-154.5 -262.5)" fill="#c0f67b" fill-rule="evenodd"/>
    </g>
    <g id="Group_91" data-name="Group 91" transform="translate(38.946 24.952)">
      <path id="Path_215" data-name="Path 215" d="M422.975,273.787a3.625,3.625,0,0,1-.376.564,11.806,11.806,0,0,0,.094-3.381,1.785,1.785,0,0,0-.892.751.342.342,0,0,0-.141-.094l-.235.282-.094-.094q-.483.229-.986.423a.685.685,0,0,1,.282.188q-.514-.013-1.127-.047l.564-.282a6.688,6.688,0,0,0,2.865-1.6Q423,272.143,422.975,273.787Z" transform="translate(-419.5 -270.5)" fill="#bff281" fill-rule="evenodd"/>
    </g>
    <g id="Group_92" data-name="Group 92" transform="translate(0.721 19.88)">
      <path id="Path_216" data-name="Path 216" d="M27.433,218.848a.235.235,0,0,0,0,.376v.094q.131.115.282.235a1.247,1.247,0,0,0-.657.282.407.407,0,0,1,.188.47,4.637,4.637,0,0,0-.892.047.235.235,0,0,0,0,.282.156.156,0,0,1,.235-.047q-.155.108,0,.235a.854.854,0,0,0,.094.517q1.88.024,3.757.141a1,1,0,0,1,.282.751,6.438,6.438,0,0,1-1.221.235q-1.856.024-3.663.141v.188a.433.433,0,0,0-.094.376h4.226a13.212,13.212,0,0,1,1.6,1.644,15.271,15.271,0,0,0,1.691.047,1.053,1.053,0,0,0,1.409.8.979.979,0,0,0,.564-.423.368.368,0,0,0,.329-.188,1.617,1.617,0,0,0-.047-.939,2.7,2.7,0,0,1-.47-.751,1.019,1.019,0,0,1,.845.282,1.354,1.354,0,0,0,0-.564h.564a.581.581,0,0,0,.282.564q-.047,3.077.094,6.1a.248.248,0,0,0,.188.235,4.626,4.626,0,0,0,1.315,0,2.491,2.491,0,0,0,.47-.8,5.287,5.287,0,0,1,.235.657,2.306,2.306,0,0,0-.047-1.127q-.2.211-.188-.094a2.562,2.562,0,0,0,.188-1.221h.564a4.064,4.064,0,0,1,.939.282h.094a18.17,18.17,0,0,0,3.757.7,10.686,10.686,0,0,0,2.442-.047,13,13,0,0,0,2.818-.376,6.933,6.933,0,0,0,1.972-.47q.42-.065.845-.094a3.115,3.115,0,0,0,.376.939v.188a3.4,3.4,0,0,0,.235,1.409,2.809,2.809,0,0,1,.61.235q-.543.4.141.235a.419.419,0,0,1,.141.188,3.01,3.01,0,0,0-.376.235,2.966,2.966,0,0,1,.8.8,4.042,4.042,0,0,0,.47-.564.554.554,0,0,1,.141.47,1.043,1.043,0,0,0-.423.282,5.564,5.564,0,0,1-.61,1.221q-.286-.159-.094.141-.309.4-.657.8a.456.456,0,0,0-.094.376.615.615,0,0,1-.282.282q-.221-.149-.376.141l.094.094a.463.463,0,0,1-.282.047,1.129,1.129,0,0,1-.564.751.342.342,0,0,1-.141-.094,3.507,3.507,0,0,0-.564.563l-.282-.188-.188.376q-.045-.254-.188-.094a.463.463,0,0,0-.047.282.291.291,0,0,1,.282.094q-.126.154-.282,0a1.068,1.068,0,0,0-.188.235.764.764,0,0,1,0,.517.694.694,0,0,1-.423,0,.964.964,0,0,1-.141.376.624.624,0,0,0-.564.141.854.854,0,0,0-.094.517,3.048,3.048,0,0,0-.751.047l.094.094a.787.787,0,0,0-.564.657,4.925,4.925,0,0,1-.657.141v.282a2.992,2.992,0,0,0-.657.282.524.524,0,0,0-.094.282,3.9,3.9,0,0,0-.751.094v.282a.546.546,0,0,1-.376.188q-.616-.019-1.221-.047-.325.05-.094.282l-.282.376a1.387,1.387,0,0,0-.657.329,15.144,15.144,0,0,1-1.972.423q-.629.282-1.221.517l-2.442.47H33.256a2.121,2.121,0,0,1-.751-.376,8.77,8.77,0,0,1-2.16,0,.248.248,0,0,0-.188-.235,15.862,15.862,0,0,1-1.691-.235.212.212,0,0,0-.094-.141,9.665,9.665,0,0,1-1.033-.282,1,1,0,0,0-1.033-.423,1.374,1.374,0,0,0-.845-.188.268.268,0,0,0-.094-.235.662.662,0,0,1-.657-.517q.541-.016,0-.188a.685.685,0,0,1-.282.188,1.789,1.789,0,0,0-.564-.094l-.094-.563a1.556,1.556,0,0,1-.939-.329,4.8,4.8,0,0,1,.47-.423l-.094-.094a6,6,0,0,1-.751.376,6.157,6.157,0,0,1-1.127-.47,22.91,22.91,0,0,1-8.453-10.8q-.165-.8-.376-1.6a.827.827,0,0,1,.141-.47l.094.188a1.166,1.166,0,0,1,.047-.7.845.845,0,0,1,.751-.047,7.69,7.69,0,0,0,1.691-.094,6.057,6.057,0,0,1,.47-1.127,7.388,7.388,0,0,0,.751-1.972q1.686-.129,3.381-.094a2.738,2.738,0,0,1-.094.845l.282.564a.343.343,0,0,0,.141-.094q.226.56.423,1.127a1.078,1.078,0,0,0-.094.235,2.638,2.638,0,0,0,.329.423.792.792,0,0,1,.047.376,9.447,9.447,0,0,0,1.878-.094v-.094a2.342,2.342,0,0,1,.751.094,3.918,3.918,0,0,0,1.691-.188q.141-3.686.094-7.42a3.05,3.05,0,0,0,.751-.047,1.372,1.372,0,0,1,0-.329q.166.191.282-.047a24.069,24.069,0,0,1,3.005,0q-.1.285.235.423.235-.376.47,0-.02-.26-.047-.517a8.98,8.98,0,0,1,.564-.8.291.291,0,0,1,.094.282,2.173,2.173,0,0,0,.751.188v.376a1.146,1.146,0,0,0,.61-.094,1.471,1.471,0,0,0,.235-.845.991.991,0,0,1,.751.47.29.29,0,0,1-.282.094q-.03.64-.61.47l-.423.517a.3.3,0,0,0,.376.094.741.741,0,0,1-.376.188.694.694,0,0,1,0,.423Q29.521,218.708,27.433,218.848Z" transform="translate(-12.5 -216.5)" fill="#bffe71" fill-rule="evenodd"/>
    </g>
    <g id="Group_93" data-name="Group 93" transform="translate(25.692 25.422)">
      <path id="Path_217" data-name="Path 217" d="M294.736,278.881l-.141.282a8.447,8.447,0,0,0-.8.658,19.135,19.135,0,0,1-3.757,1.315h-.188a6.759,6.759,0,0,1-1.033.094q-1.973.024-3.945-.047l-2.724-.423h-.282a1.945,1.945,0,0,1-.47-.094,9.477,9.477,0,0,0-1.409-.564.954.954,0,0,0-.282-.282,1.914,1.914,0,0,0-.939-.892.342.342,0,0,0,.094-.141,2.88,2.88,0,0,1-.376-.61q.049-.177.188-.094a6.693,6.693,0,0,0,.47.751q1.65.416,1.456-1.268a.212.212,0,0,0-.141-.094.582.582,0,0,0-.7-.376,1.022,1.022,0,0,0-.986.47.342.342,0,0,0,.094.141.189.189,0,0,1-.282-.047,7.089,7.089,0,0,1-.188-2.066l.939.376a13.931,13.931,0,0,0,5.072,1.409.212.212,0,0,0,.094.141,19.312,19.312,0,0,0,3.287-.047,35.626,35.626,0,0,0,3.851-.564q.613.034,1.127.047a.685.685,0,0,0-.282-.188q.5-.193.986-.423l.094.094.235-.282a.343.343,0,0,1,.141.094,1.785,1.785,0,0,1,.892-.751A11.8,11.8,0,0,1,294.736,278.881Z" transform="translate(-278.383 -275.5)" fill="#bffe72" fill-rule="evenodd"/>
    </g>
    <g id="Group_94" data-name="Group 94" transform="translate(27.77 25.797)">
      <path id="Path_218" data-name="Path 218" d="M300.5,279.5a14.462,14.462,0,0,0,2.16.517q.4.154.751.329h-.376A8.773,8.773,0,0,1,300.5,279.5Z" transform="translate(-300.5 -279.5)" fill="#b6e27c" fill-rule="evenodd"/>
    </g>
    <g id="Group_95" data-name="Group 95" transform="translate(13.955 26.173)">
      <path id="Path_219" data-name="Path 219" d="M153.513,283.5v.282q2.091-.046,4.132.094h-4.226A.433.433,0,0,1,153.513,283.5Z" transform="translate(-153.41 -283.5)" fill="#8dae65" fill-rule="evenodd"/>
    </g>
    <g id="Group_96" data-name="Group 96" transform="translate(25.51 24.952)">
      <path id="Path_220" data-name="Path 220" d="M276.725,270.688a12.894,12.894,0,0,0-.188,3.1.152.152,0,0,1-.094-.188q-.024-1.55.047-3.1A.9.9,0,0,1,276.725,270.688Z" transform="translate(-276.437 -270.5)" fill="#afd480" fill-rule="evenodd"/>
    </g>
    <g id="Group_97" data-name="Group 97" transform="translate(14.057 25.979)">
      <path id="Path_221" data-name="Path 221" d="M154.5,281.443q2.114-.024,4.226.047l1.691,1.691a12.061,12.061,0,0,0,1.5.047,1.049,1.049,0,0,1,1.6-.751,1.139,1.139,0,0,1,.376,1.6.98.98,0,0,1-.564.423,1.053,1.053,0,0,1-1.409-.8,15.283,15.283,0,0,1-1.691-.047,13.21,13.21,0,0,0-1.6-1.644q-2.041-.14-4.132-.094v-.47Z" transform="translate(-154.5 -281.437)" fill="#0e1607" fill-rule="evenodd"/>
    </g>
    <g id="Group_98" data-name="Group 98" transform="translate(29.554 26.304)">
      <path id="Path_222" data-name="Path 222" d="M329.455,285.143l-.564.282a35.645,35.645,0,0,1-3.851.563q-1.646.023-3.287-.094a9.318,9.318,0,0,0-2.066-.423l-.188-.188a3.054,3.054,0,0,1,.751-.047h.376a6.207,6.207,0,0,0,1.315.235,40.761,40.761,0,0,0,4.508-.047q1.037-.071,2.066-.235a1.668,1.668,0,0,1,1.127-.282A.663.663,0,0,0,329.455,285.143Z" transform="translate(-319.5 -284.899)" fill="#363c28" fill-rule="evenodd"/>
    </g>
    <g id="Group_99" data-name="Group 99" transform="translate(30.681 26.643)">
      <path id="Path_223" data-name="Path 223" d="M331.5,288.5q1.689.112,3.381.188,1.458-.088,2.912-.188l-.47.188a40.76,40.76,0,0,1-4.508.047A6.211,6.211,0,0,1,331.5,288.5Z" transform="translate(-331.5 -288.5)" fill="#b7e77a" fill-rule="evenodd"/>
    </g>
    <g id="Group_100" data-name="Group 100" transform="translate(31.526 11.428)">
      <path id="Path_224" data-name="Path 224" d="M347.074,126.594a10.873,10.873,0,0,1,3.287,1.174,6.192,6.192,0,0,1,1.409,1.456q.139,9.435.094,18.878a.31.31,0,0,1-.188.141,3.989,3.989,0,0,1-1.221,0,1.392,1.392,0,0,1-.188-.61,2.73,2.73,0,0,1,.282.423,6.8,6.8,0,0,0,1.127.047.291.291,0,0,0-.094-.282,1.737,1.737,0,0,1-.939.047,1.486,1.486,0,0,1-.094-.7,1.7,1.7,0,0,1,.188.657h.657q.024-1.738-.047-3.475a2.007,2.007,0,0,1-.7.564.207.207,0,0,0-.188-.188l-.376.094a8.446,8.446,0,0,1,.8-.657l.141-.282a3.615,3.615,0,0,0,.376-.563.926.926,0,0,1-.094.563.615.615,0,0,0-.282.282,1.213,1.213,0,0,1,.517.282q.047,1.6.094,3.193l.094-.094q.07-8.124.047-16.248V131.1a12.066,12.066,0,0,0-.047-1.5q-.308-.677-.329,0a2.451,2.451,0,0,1-.329-.564,7.131,7.131,0,0,0-3.334-1.831,20.584,20.584,0,0,0-7.232-.517,1.72,1.72,0,0,1,.564-.141q1.878-.094,3.757,0a13.766,13.766,0,0,1,2.019.329Q347.245,126.884,347.074,126.594Z" transform="translate(-340.5 -126.5)" fill="#32401f" fill-rule="evenodd"/>
    </g>
    <g id="Group_101" data-name="Group 101" transform="translate(25.587 25.14)">
      <path id="Path_225" data-name="Path 225" d="M277.473,272.5l.845.751-.939-.376a7.089,7.089,0,0,0,.188,2.066.189.189,0,0,0,.282.047.342.342,0,0,1-.094-.141,1.022,1.022,0,0,1,.986-.47.582.582,0,0,1,.7.376.212.212,0,0,1,.141.094q.195,1.683-1.456,1.268a6.7,6.7,0,0,1-.47-.751q-.138-.083-.188.094a2.882,2.882,0,0,0,.376.61.342.342,0,0,1-.094.141,1.914,1.914,0,0,1,.939.892,2.761,2.761,0,0,1-1.409-1.5A12.894,12.894,0,0,1,277.473,272.5Z" transform="translate(-277.263 -272.5)" fill="#c0f57a" fill-rule="evenodd"/>
    </g>
    <g id="Group_102" data-name="Group 102" transform="translate(26.361 27.105)">
      <path id="Path_226" data-name="Path 226" d="M286.909,293.709a.878.878,0,0,1-.47,1.268q-.884.149-.939-.751Q285.8,292.937,286.909,293.709Z" transform="translate(-285.5 -293.42)" fill="#384029" fill-rule="evenodd"/>
    </g>
    <g id="Group_103" data-name="Group 103" transform="translate(31.714 27.3)">
      <path id="Path_227" data-name="Path 227" d="M342.5,295.5h.094q1.641.117,3.287.094a19.308,19.308,0,0,1-3.287.047A.212.212,0,0,1,342.5,295.5Z" transform="translate(-342.5 -295.5)" fill="#98ba6c" fill-rule="evenodd"/>
    </g>
    <g id="Group_104" data-name="Group 104" transform="translate(25.14 19.786)">
      <path id="Path_228" data-name="Path 228" d="M272.97,216.251a.083.083,0,0,0-.094.094q.129,3.715,0,7.42a.152.152,0,0,0,.094.188,2.761,2.761,0,0,0,1.409,1.5.955.955,0,0,1,.282.282.456.456,0,0,1-.094.376,1.072,1.072,0,0,0-.47-.282,4.488,4.488,0,0,1-.939-.564l-.188-.282a.1.1,0,0,0-.094-.094,17.1,17.1,0,0,0,0,3.569,1.207,1.207,0,0,0,.657-.094,8.725,8.725,0,0,0,.282-.845.59.59,0,0,0,.235-.47l.094.094a4.191,4.191,0,0,1-.141,1.127.562.562,0,0,0-.188.47H272.5V215.876q.1-.184.235-.376A.586.586,0,0,1,272.97,216.251Z" transform="translate(-272.5 -215.5)" fill="#35392b" fill-rule="evenodd"/>
    </g>
    <g id="Group_105" data-name="Group 105" transform="translate(42.797 14.151)">
      <path id="Path_229" data-name="Path 229" d="M460.5,155.5a.31.31,0,0,1,.141.188q.117,9.369-.047,18.69Q460.639,164.935,460.5,155.5Z" transform="translate(-460.5 -155.5)" fill="#b8e780" fill-rule="evenodd"/>
    </g>
    <g id="Group_106" data-name="Group 106" transform="translate(26.833 27.674)">
      <path id="Path_230" data-name="Path 230" d="M290.616,299.484q.717-.03.282.517Q290.34,300.018,290.616,299.484Z" transform="translate(-290.525 -299.483)" fill="#bff181" fill-rule="evenodd"/>
    </g>
    <g id="Group_107" data-name="Group 107" transform="translate(21.849 27.298)">
      <path id="Path_231" data-name="Path 231" d="M237.843,295.483q1.1-.045.892,1.033a.691.691,0,0,1-1.221,0A.88.88,0,0,1,237.843,295.483Z" transform="translate(-237.464 -295.481)" fill="#bef875" fill-rule="evenodd"/>
    </g>
    <g id="Group_108" data-name="Group 108" transform="translate(9.268 27.206)">
      <path id="Path_232" data-name="Path 232" d="M104.345,294.5a3.478,3.478,0,0,1,.376,1.221,2.922,2.922,0,0,1-1.033-.094,1.975,1.975,0,0,1-.188-.657.8.8,0,0,1,.282.47,1.584,1.584,0,0,0,.751.094A2.568,2.568,0,0,1,104.345,294.5Z" transform="translate(-103.5 -294.5)" fill="#a5cf6e" fill-rule="evenodd"/>
    </g>
    <g id="Group_109" data-name="Group 109" transform="translate(25.035 13.118)">
      <path id="Path_233" data-name="Path 233" d="M272.423,144.5a.207.207,0,0,0,.188.188l.376-.094q-.276.233-.564.47a.29.29,0,0,0-.094-.282,2.4,2.4,0,0,0-.423.376,8.007,8.007,0,0,1-.376.845q-.07,2.77-.047,5.541v12.867H272.8a.562.562,0,0,1,.188-.47.682.682,0,0,1-.188.61,3.758,3.758,0,0,1-1.409-.047q-.046-9.445.094-18.878A2.723,2.723,0,0,1,272.423,144.5Z" transform="translate(-271.379 -144.5)" fill="#3f5125" fill-rule="evenodd"/>
    </g>
    <g id="Group_110" data-name="Group 110" transform="translate(9.174 28.709)">
      <path id="Path_234" data-name="Path 234" d="M102.5,310.5a9.04,9.04,0,0,0,1.784.094v.094A4.352,4.352,0,0,1,102.5,310.5Z" transform="translate(-102.5 -310.5)" fill="#7da24c" fill-rule="evenodd"/>
    </g>
    <g id="Group_111" data-name="Group 111" transform="translate(11.709 28.709)">
      <path id="Path_235" data-name="Path 235" d="M131.191,310.5a3.919,3.919,0,0,1-1.691.188v-.094A8.148,8.148,0,0,0,131.191,310.5Z" transform="translate(-129.5 -310.5)" fill="#80a84f" fill-rule="evenodd"/>
    </g>
    <g id="Group_112" data-name="Group 112" transform="translate(3.914 25.416)">
      <path id="Path_236" data-name="Path 236" d="M51.759,278.73a4.352,4.352,0,0,0,1.784.188,9.444,9.444,0,0,1-1.878.094.792.792,0,0,0-.047-.376,2.641,2.641,0,0,1-.329-.423,1.079,1.079,0,0,1,.094-.235q-.2-.567-.423-1.127a.343.343,0,0,1-.141.094l-.282-.564a2.738,2.738,0,0,0,.094-.845q-1.695-.035-3.381.094A7.389,7.389,0,0,1,46.5,277.6a11.809,11.809,0,0,1,.657-2.113q1.784-.07,3.569-.047Q51.212,277.088,51.759,278.73Z" transform="translate(-46.5 -275.437)" fill="#b6e878" fill-rule="evenodd"/>
    </g>
    <g id="Group_113" data-name="Group 113" transform="translate(-0.03 27.488)">
      <path id="Path_237" data-name="Path 237" d="M4.5,297.5a.212.212,0,0,1,.141.094,10.109,10.109,0,0,0,.376,1.878,1.119,1.119,0,0,0,.235.376q.211.8.376,1.6A13.432,13.432,0,0,1,4.5,297.5Z" transform="translate(-4.5 -297.5)" fill="#b2dd79" fill-rule="evenodd" opacity="0.804"/>
    </g>
    <g id="Group_114" data-name="Group 114" transform="translate(34.814 25.328)">
      <path id="Path_238" data-name="Path 238" d="M387.146,274.5v.845a23.868,23.868,0,0,1-10.237,16.483,5.714,5.714,0,0,1-1.409.7,21.815,21.815,0,0,0,6.2-5.353.615.615,0,0,0,.282-.282,11.36,11.36,0,0,0,1.878-2.818q.256-.319.517-.657A25.988,25.988,0,0,0,387.146,274.5Z" transform="translate(-375.5 -274.5)" fill="#0b1504" fill-rule="evenodd" opacity="0.165"/>
    </g>
    <g id="Group_115" data-name="Group 115" transform="translate(25.422 29.178)">
      <path id="Path_239" data-name="Path 239" d="M275.693,315.594a32.2,32.2,0,0,0-.094,3.475,17.1,17.1,0,0,1,0-3.569A.1.1,0,0,1,275.693,315.594Z" transform="translate(-275.506 -315.5)" fill="#2f4411" fill-rule="evenodd"/>
    </g>
    <g id="Group_116" data-name="Group 116" transform="translate(26.455 30.024)">
      <path id="Path_240" data-name="Path 240" d="M287.345,324.5a9.471,9.471,0,0,1,1.409.564q-2.35-.547-.094.282a.172.172,0,0,1,.094.188,4.062,4.062,0,0,0-.939-.282,1.79,1.79,0,0,0-.517-.282q-.291,1.055-.61,2.066a4.191,4.191,0,0,0,.141-1.127l-.094-.094a.59.59,0,0,1-.235.47l.282-1.691a1.072,1.072,0,0,1,.47.282A.456.456,0,0,0,287.345,324.5Z" transform="translate(-286.5 -324.5)" fill="#374325" fill-rule="evenodd"/>
    </g>
    <g id="Group_117" data-name="Group 117" transform="translate(27.51 30.369)">
      <path id="Path_241" data-name="Path 241" d="M298.935,328.4a1.944,1.944,0,0,0,.47.094,1.38,1.38,0,0,0,.282.329.418.418,0,0,1-.188.141.856.856,0,0,0-.47-.094h-.094a.172.172,0,0,0-.094-.188Q296.586,327.853,298.935,328.4Z" transform="translate(-297.737 -328.183)" fill="#34362c" fill-rule="evenodd"/>
    </g>
    <g id="Group_118" data-name="Group 118" transform="translate(39.885 29.648)">
      <path id="Path_242" data-name="Path 242" d="M431.284,320.688a1.441,1.441,0,0,0-.47.517q.132.42.282.8v.188a3.9,3.9,0,0,0,.094.751,1.486,1.486,0,0,0,.094.7,1.737,1.737,0,0,0,.939-.047.291.291,0,0,1,.094.282,6.8,6.8,0,0,1-1.127-.047,2.725,2.725,0,0,0-.282-.423,5.671,5.671,0,0,0-.282-.657v-.188a6.387,6.387,0,0,1-.188-1.221,1.941,1.941,0,0,0-.47.094,1.214,1.214,0,0,1-.47-.047,1.406,1.406,0,0,1,.845-.423q.193-.189.376-.376l.376-.094A.207.207,0,0,1,431.284,320.688Z" transform="translate(-429.5 -320.5)" fill="#353a2a" fill-rule="evenodd"/>
    </g>
    <g id="Group_119" data-name="Group 119" transform="translate(29.46 30.681)">
      <path id="Path_243" data-name="Path 243" d="M318.5,331.5l2.724.423q1.972.07,3.945.047a36.241,36.241,0,0,1-4.508.047A12.91,12.91,0,0,1,318.5,331.5Z" transform="translate(-318.5 -331.5)" fill="#baea7c" fill-rule="evenodd"/>
    </g>
    <g id="Group_120" data-name="Group 120" transform="translate(37.349 29.742)">
      <path id="Path_244" data-name="Path 244" d="M406.257,321.5q-.183.187-.376.376a1.406,1.406,0,0,0-.845.423,1.214,1.214,0,0,0,.47.047l-.564.282a6.934,6.934,0,0,1-1.972.47,1.452,1.452,0,0,1,.657-.282,2.278,2.278,0,0,0-1.127,0A19.129,19.129,0,0,0,406.257,321.5Z" transform="translate(-402.5 -321.5)" fill="#394628" fill-rule="evenodd"/>
    </g>
    <g id="Group_121" data-name="Group 121" transform="translate(39.791 30.493)">
      <path id="Path_245" data-name="Path 245" d="M429.721,330.721a3.115,3.115,0,0,1-.376-.939q-.425.029-.845.094l.564-.282a1.942,1.942,0,0,1,.47-.094A6.391,6.391,0,0,0,429.721,330.721Z" transform="translate(-428.5 -329.5)" fill="#b3dd78" fill-rule="evenodd"/>
    </g>
    <g id="Group_122" data-name="Group 122" transform="translate(25.587 29.554)">
      <path id="Path_246" data-name="Path 246" d="M277.473,319.5a4.487,4.487,0,0,0,.939.564l-.282,1.69a8.748,8.748,0,0,1-.282.845h-.564A12.9,12.9,0,0,1,277.473,319.5Z" transform="translate(-277.263 -319.5)" fill="#bffa75" fill-rule="evenodd"/>
    </g>
    <g id="Group_123" data-name="Group 123" transform="translate(28.803 30.681)">
      <path id="Path_247" data-name="Path 247" d="M311.876,331.5h.282a12.91,12.91,0,0,0,2.16.517,36.241,36.241,0,0,0,4.508-.047,6.772,6.772,0,0,0,1.033-.094,1.949,1.949,0,0,1-.939.235l-5.072.094q1.922.259,3.851.329a10.686,10.686,0,0,1-2.442.047,18.176,18.176,0,0,1-3.757-.7.855.855,0,0,1,.47.094.418.418,0,0,0,.188-.141A1.381,1.381,0,0,1,311.876,331.5Z" transform="translate(-311.5 -331.5)" fill="#3d492a" fill-rule="evenodd"/>
    </g>
    <g id="Group_124" data-name="Group 124" transform="translate(41.388 29.648)">
      <path id="Path_248" data-name="Path 248" d="M445.594,322.191V322a7.217,7.217,0,0,0-.094-.939,4.075,4.075,0,0,0,.8-.564q.07,1.455.047,2.911h-.376A5.334,5.334,0,0,0,445.594,322.191Z" transform="translate(-445.5 -320.5)" fill="#befe71" fill-rule="evenodd"/>
    </g>
    <g id="Group_125" data-name="Group 125" transform="translate(31.151 30.986)">
      <path id="Path_249" data-name="Path 249" d="M343.168,335.1a12.994,12.994,0,0,1-2.818.376q-1.929-.07-3.851-.329l5.072-.094a1.949,1.949,0,0,0,.939-.235h.188a2.278,2.278,0,0,1,1.127,0A1.452,1.452,0,0,0,343.168,335.1Z" transform="translate(-336.5 -334.746)" fill="#343829" fill-rule="evenodd"/>
    </g>
    <g id="Group_126" data-name="Group 126" transform="translate(41.2 29.272)">
      <path id="Path_250" data-name="Path 250" d="M443.876,319.318a3.9,3.9,0,0,1-.094-.751,5.336,5.336,0,0,1,.376,1.221h.376q.023-1.457-.047-2.911a4.072,4.072,0,0,1-.8.563,7.223,7.223,0,0,1,.094.939q-.15-.378-.282-.8a1.44,1.44,0,0,1,.47-.517,2.006,2.006,0,0,0,.7-.563q.07,1.737.047,3.475h-.657A1.7,1.7,0,0,0,443.876,319.318Z" transform="translate(-443.5 -316.5)" fill="#c2f182" fill-rule="evenodd"/>
    </g>
    <g id="Group_127" data-name="Group 127" transform="translate(25.504 29.272)">
      <path id="Path_251" data-name="Path 251" d="M276.483,316.5l.188.282a12.894,12.894,0,0,0-.188,3.1h.564a1.207,1.207,0,0,1-.657.094A32.183,32.183,0,0,1,276.483,316.5Z" transform="translate(-276.378 -316.5)" fill="#b0d480" fill-rule="evenodd"/>
    </g>
    <g id="Group_128" data-name="Group 128" transform="translate(25.046 30.493)">
      <path id="Path_252" data-name="Path 252" d="M274.224,329.782h-.564a2.563,2.563,0,0,1-.188,1.221q-.01.305.188.094a2.306,2.306,0,0,1,.047,1.127,5.282,5.282,0,0,0-.235-.657,2.491,2.491,0,0,1-.47.8,4.62,4.62,0,0,1-1.315,0,.248.248,0,0,1-.188-.235,3.757,3.757,0,0,0,1.409.047.682.682,0,0,0,.188-.61q.319-1.011.61-2.066A1.79,1.79,0,0,1,274.224,329.782Z" transform="translate(-271.5 -329.5)" fill="#bff67b" fill-rule="evenodd"/>
    </g>
    <g id="Group_129" data-name="Group 129" transform="translate(41.286 34.907)">
      <path id="Path_253" data-name="Path 253" d="M446.3,376.5a11.362,11.362,0,0,1-1.878,2.818.456.456,0,0,1,.094-.376q.349-.4.657-.8-.192-.3.094-.141a5.565,5.565,0,0,0,.61-1.221A1.042,1.042,0,0,1,446.3,376.5Z" transform="translate(-444.413 -376.5)" fill="#b9e77d" fill-rule="evenodd" opacity="0.988"/>
    </g>
    <g id="Group_130" data-name="Group 130" transform="translate(-0.5 24.858)">
      <path id="Path_254" data-name="Path 254" d="M-.5,269.5l.47,2.63A13.432,13.432,0,0,0,1.1,276.074a22.91,22.91,0,0,0,8.453,10.8q.774.6,1.6,1.127a1.449,1.449,0,0,1-.657-.235A24.253,24.253,0,0,1-.5,270.533Z" transform="translate(0.5 -269.5)" fill="#0b1403" fill-rule="evenodd" opacity="0.016"/>
    </g>
    <g id="Group_131" data-name="Group 131" transform="translate(34.438 37.956)">
      <path id="Path_255" data-name="Path 255" d="M378.074,409.011a21.816,21.816,0,0,1-6.2,5.353l-.376.188a.524.524,0,0,1,.094-.282,2.991,2.991,0,0,1,.657-.282v-.282a4.939,4.939,0,0,0,.657-.141.787.787,0,0,1,.564-.657l-.094-.094a3.05,3.05,0,0,1,.751-.047.854.854,0,0,1,.094-.517.624.624,0,0,1,.564-.141.965.965,0,0,0,.141-.376.694.694,0,0,0,.423,0,.764.764,0,0,0,0-.517,1.069,1.069,0,0,1,.188-.235q.156.154.282,0a.291.291,0,0,0-.282-.094.463.463,0,0,1,.047-.282q.143-.16.188.094l.188-.376.282.188a3.5,3.5,0,0,1,.564-.564.342.342,0,0,0,.141.094,1.129,1.129,0,0,0,.564-.751.463.463,0,0,0,.282-.047l-.094-.094Q377.853,408.862,378.074,409.011Z" transform="translate(-371.5 -408.96)" fill="#bbef76" fill-rule="evenodd" opacity="0.996"/>
    </g>
    <g id="Group_132" data-name="Group 132" transform="translate(9.549 42.233)">
      <path id="Path_256" data-name="Path 256" d="M106.5,454.5a6.16,6.16,0,0,0,1.127.47,6,6,0,0,0,.751-.376l.094.094a4.815,4.815,0,0,0-.47.423,1.556,1.556,0,0,0,.939.329l.094.564a1.788,1.788,0,0,1,.564.094.685.685,0,0,0,.282-.188q.541.172,0,.188a.662.662,0,0,0,.657.517.268.268,0,0,1,.094.235,15.77,15.77,0,0,1-2.536-1.221Q107.274,455.1,106.5,454.5Z" transform="translate(-106.5 -454.5)" fill="#b7ed72" fill-rule="evenodd"/>
    </g>
    <g id="Group_133" data-name="Group 133" transform="translate(33.687 43.548)">
      <path id="Path_257" data-name="Path 257" d="M364.251,468.5a2.123,2.123,0,0,1-.751.376v-.282A3.9,3.9,0,0,1,364.251,468.5Z" transform="translate(-363.5 -468.5)" fill="#9ec866" fill-rule="evenodd"/>
    </g>
    <g id="Group_134" data-name="Group 134" transform="translate(31.057 44.064)">
      <path id="Path_258" data-name="Path 258" d="M337.754,474.047a8.979,8.979,0,0,1-2.254.939,1.387,1.387,0,0,1,.657-.329l.282-.376q-.231-.232.094-.282Q337.138,474.028,337.754,474.047Z" transform="translate(-335.5 -474)" fill="#b2e571" fill-rule="evenodd"/>
    </g>
    <g id="Group_135" data-name="Group 135" transform="translate(13.682 44.575)">
      <path id="Path_259" data-name="Path 259" d="M150.5,479.44a1.375,1.375,0,0,1,.845.188,1,1,0,0,1,1.033.423,9.639,9.639,0,0,0,1.033.282.212.212,0,0,1,.094.141A14.2,14.2,0,0,1,150.5,479.44Z" transform="translate(-150.5 -479.433)" fill="#b7e774" fill-rule="evenodd"/>
    </g>
    <g id="Group_136" data-name="Group 136" transform="translate(27.864 45.051)">
      <path id="Path_260" data-name="Path 260" d="M304.693,484.5a12.143,12.143,0,0,1-3.193.939q.592-.234,1.221-.517A15.142,15.142,0,0,0,304.693,484.5Z" transform="translate(-301.5 -484.5)" fill="#a6d26e" fill-rule="evenodd"/>
    </g>
    <g id="Group_137" data-name="Group 137" transform="translate(16.687 45.614)">
      <path id="Path_261" data-name="Path 261" d="M182.5,490.5a15.853,15.853,0,0,0,1.691.235.248.248,0,0,1,.188.235A6.892,6.892,0,0,1,182.5,490.5Z" transform="translate(-182.5 -490.5)" fill="#aedc74" fill-rule="evenodd" opacity="0.996"/>
    </g>
    <g id="Group_138" data-name="Group 138" transform="translate(18.566 46.084)">
      <path id="Path_262" data-name="Path 262" d="M202.5,495.5a8.77,8.77,0,0,0,2.16,0,2.121,2.121,0,0,0,.751.376h-.845Z" transform="translate(-202.5 -495.5)" fill="#a9da6e" fill-rule="evenodd" opacity="0.978"/>
    </g>
  </g>
</svg>
