<svg xmlns="http://www.w3.org/2000/svg" width="500" height="500" viewBox="0 0 500 500">
  <g id="Chat_DB_1__adobe_express" data-name="Chat DB (1)_adobe_express" transform="translate(-1 -1)">
    <path id="Path_264" data-name="Path 264" d="M232,1c12.021,0,24.042,0,36.714.379,19.646,1.713,38.475,4.614,56.4,10.884,96.611,33.785,154.839,100.745,173.044,201.866,1.069,5.935,1.9,11.914,2.839,17.872,0,12.688,0,25.375-.373,38.713-2.565,13.928-3.942,27.4-7.076,40.455C470.044,409.049,387.034,484.011,286.876,498.28c-5.967.85-11.918,1.811-17.876,2.72-12.354,0-24.708,0-37.7-.373-9.377-1.56-18.186-2.356-26.835-4C99.743,476.776,19.627,393.178,3.736,287.377,2.914,281.9,1.916,276.458,1,271c0-13.021,0-26.042.373-39.713,2.613-14.09,3.952-27.755,7.237-40.934A249.406,249.406,0,0,1,215.125,3.717C220.762,2.892,226.375,1.909,232,1M458.879,197.24c-15.294-14.991-30.587-29.982-46.763-45.313q-46.98-.047-93.96-.076c-11.548.006-17.325,5.939-17.328,17.65q-.024,81.468-.007,162.936c0,11.965,5.741,17.71,17.734,17.718q61.476.037,122.952,0c11.885-.008,17.623-5.845,17.629-17.83q.033-64.975.022-129.95c0-1.491-.158-2.982-.279-5.133M58.42,337.171c8.127,0,8.119,0,10.721-7.829,4.127-12.41,8.265-24.815,12.437-37.339,14.7,0,29.018.145,43.327-.1,3.525-.061,4.951,1.159,5.97,4.3,4,12.332,8.184,24.607,12.406,36.866.495,1.437,1.616,3.751,2.516,3.785,8.033.3,16.081.173,24.608.173a44.124,44.124,0,0,0-.958-4.732q-6.227-18.422-12.538-36.813-17.964-52.6-35.872-105.22c-1.065-3.146-2.479-4.615-5.993-4.452-5.985.279-12,.3-17.985-.007-3.642-.188-5.264,1.119-6.417,4.533Q66.952,260.473,43.06,330.545a55.1,55.1,0,0,0-1.328,6.626H58.42M201.031,197.518V185.877c-6.1,0-11.565,0-17.033,0-6.517.006-6.53.009-6.531,6.694q-.006,69.174.011,138.348c0,1.942.2,3.884.312,6.022h23.241V197.518m79.692,69.654V256.136H258.907V234.544H242.869v21.832H221.457v15.293h21.631v21.795h15.856V271.613c6.354,0,12.15-.087,17.941.04C279.52,271.71,281.131,271.089,280.723,267.172Z" fill="#015649"/>
    <path id="Path_269" data-name="Path 269" d="M458.916,197.9c.084,1.492.242,2.983.242,4.474q.006,64.976-.022,129.95c-.006,11.985-5.744,17.822-17.629,17.83q-61.476.043-122.952,0c-11.993-.008-17.731-5.753-17.734-17.718q-.021-81.468.007-162.936c0-11.711,5.78-17.644,17.328-17.65,31.32-.015,62.64.045,94.383.7.417,13.728.529,26.837.334,39.942-.058,3.941.9,5.625,5.229,5.544,13.6-.253,27.209-.119,40.814-.135m-22.935,28.232c-.255-11.636,2.292-11.435-10.113-11-32.31-.022-64.621,0-96.931-.124-3.507-.014-5.046.73-5.022,4.668q.231,37.971.015,75.946c-.018,3.572,1.272,4.524,4.66,4.515q51.463-.137,102.928.006c3.526.01,4.568-1.192,4.547-4.629C435.929,272.7,435.965,249.883,435.981,226.131Z" fill="#ffcfa3"/>
    <path id="Path_270" data-name="Path 270" d="M57.931,337.171h-16.2a55.1,55.1,0,0,1,1.328-6.626q23.779-70.11,47.584-140.212c1.153-3.414,2.775-4.721,6.417-4.533,5.982.31,12,.286,17.985.007,3.514-.163,4.928,1.306,5.993,4.452q17.826,52.647,35.872,105.22,6.283,18.4,12.538,36.813a44.124,44.124,0,0,1,.958,4.732c-8.527,0-16.575.124-24.608-.173-.9-.034-2.021-2.348-2.516-3.785-4.222-12.259-8.4-24.534-12.406-36.866-1.019-3.142-2.445-4.362-5.97-4.3-14.309.249-28.626.1-43.327.1-4.172,12.524-8.31,24.929-12.437,37.339-2.6,7.825-2.595,7.828-11.21,7.829m38.78-93L87.549,270.94h35.593c-5.978-17.9-11.845-35.466-17.878-53.531C102.378,226.419,99.654,234.92,96.712,244.173Z" fill="#fdcea2"/>
    <path id="Path_271" data-name="Path 271" d="M201.031,198.015V336.942H177.79c-.116-2.138-.311-4.08-.312-6.022q-.025-69.174-.011-138.348c0-6.685.014-6.688,6.531-6.694,5.468-.005,10.936,0,17.033,0Z" fill="#facda1"/>
    <path id="Path_272" data-name="Path 272" d="M280.723,267.626c.408,3.463-1.2,4.084-3.838,4.027-5.791-.127-11.587-.04-17.941-.04v21.851H243.088V271.669H221.457V256.376h21.412V234.544h16.038v21.592h21.816Z" fill="#f6cba0"/>
    <path id="Path_273" data-name="Path 273" d="M458.9,197.569c-13.586.346-27.194.212-40.8.465-4.329.081-5.287-1.6-5.229-5.544.2-13.105.083-26.214.107-39.772Q435.948,174.528,458.9,197.569Z" fill="#d6d3d2"/>
    <path id="Path_274" data-name="Path 274" d="M435.944,227.066c.021,22.817-.015,45.634.121,68.451.021,3.437-1.021,4.639-4.547,4.629q-51.463-.154-102.928-.006c-3.388.009-4.678-.943-4.66-4.515q.183-37.973-.015-75.946c-.024-3.938,1.515-4.682,5.022-4.668,32.31.123,64.621.1,97.507.465,3.551,4.091,6.526,7.84,9.5,11.59m-6.881,22.686c.152-2.347-.55-3.762-3.293-3.755q-30.673.075-61.347-.006c-2.59-.008-3.557,1.052-3.507,3.568.092,4.653-.219,9.331.191,13.95.111,1.248,2.2,3.312,3.4,3.324,20.281.208,40.565.118,60.847.189,2.835.009,3.827-1.125,3.744-3.857-.126-4.152-.03-8.311-.034-13.413m-66.089,23.52c-.684,1.315-1.853,2.593-1.957,3.952-.276,3.642.157,7.34-.163,10.975-.38,4.309,1.022,5.814,5.533,5.742,15.813-.256,31.633-.052,47.45-.127,4.786-.023,11.566,1.428,13.829-1.067,2.576-2.838.984-9.35,1.456-14.24.4-4.117-1.106-5.473-5.3-5.432-19.977.2-39.958.1-60.846.2m65.976-36.134c.04-3.327-.144-6.676.174-9.977.41-4.243-1.343-5.356-5.407-5.31-16.975.191-33.954.08-50.931.08-12.076,0-11.9,0-11.954,12.2-.019,4.107,1.47,5.031,5.24,5,19.307-.145,38.615-.042,57.923-.112a9.074,9.074,0,0,0,4.955-1.885m-91.339,8.87c-6.673.039-6.674.039-6.68,6.869,0,3.165.163,6.341-.043,9.492-.22,3.369.86,4.876,4.478,4.681a119.269,119.269,0,0,1,13.984.011c3.9.249,4.932-1.371,4.7-4.956a94.073,94.073,0,0,1-.006-11.487c.192-3.371-.839-4.92-4.467-4.664-3.646.256-7.325.055-11.963.054M331.4,292.876c6.89.279,13.78.653,20.672.682.639,0,1.78-2.156,1.843-3.355.226-4.308-.031-8.64.132-12.954.113-2.973-.948-4.222-4.008-4.127-4.979.153-9.973.18-14.95-.008-3.369-.127-4.337,1.353-4.2,4.473.2,4.81.133,9.631.516,15.289m-.465-62.373c.105,9.621-1.074,8.466,8.447,8.565.663.007,1.327,0,1.991,0,13.408,0,13.339,0,12.675-13.319-.135-2.7-.929-3.94-3.758-3.846-3.976.132-7.961.027-11.942.027C330.942,221.933,330.942,221.934,330.931,230.5Z" fill="#fffefc"/>
    <path id="Path_275" data-name="Path 275" d="M435.963,226.6c-2.993-3.282-5.968-7.031-9.065-11.093C438.273,214.7,435.726,214.495,435.963,226.6Z" fill="#ffdebf"/>
    <path id="Path_276" data-name="Path 276" d="M96.821,243.8c2.833-8.877,5.557-17.378,8.443-26.388,6.033,18.065,11.9,35.63,17.878,53.531H87.549C90.677,261.8,93.695,252.987,96.821,243.8Z" fill="#04584a"/>
    <path id="Path_277" data-name="Path 277" d="M429.066,250.225c0,4.629-.1,8.788.031,12.94.083,2.732-.909,3.866-3.744,3.857-20.282-.071-40.566.019-60.847-.189-1.2-.012-3.288-2.076-3.4-3.324-.41-4.619-.1-9.3-.191-13.95-.05-2.516.917-3.576,3.507-3.568q30.674.083,61.347.006C428.513,245.99,429.215,247.4,429.066,250.225Z" fill="#ffcfa3"/>
    <path id="Path_278" data-name="Path 278" d="M363.428,273.229c20.434-.051,40.415.043,60.392-.154,4.2-.041,5.7,1.315,5.3,5.432-.472,4.89,1.12,11.4-1.456,14.24-2.263,2.495-9.043,1.044-13.829,1.067-15.817.075-31.637-.129-47.45.127-4.511.072-5.913-1.433-5.533-5.742.32-3.635-.113-7.333.163-10.975C361.121,275.865,362.29,274.587,363.428,273.229Z" fill="#ffd1a7"/>
    <path id="Path_279" data-name="Path 279" d="M428.811,237.578a11.949,11.949,0,0,1-4.816,1.445c-19.308.07-38.616-.033-57.923.112-3.77.029-5.259-.895-5.24-5,.056-12.2-.122-12.2,11.954-12.2,16.977,0,33.956.111,50.931-.08,4.064-.046,5.817,1.067,5.407,5.31C428.806,230.462,428.99,233.811,428.811,237.578Z" fill="#ffcfa3"/>
    <path id="Path_280" data-name="Path 280" d="M338.1,246.008c4.151,0,7.83.2,11.476-.054,3.628-.256,4.659,1.293,4.467,4.664a94.073,94.073,0,0,0,.006,11.487c.235,3.585-.8,5.2-4.7,4.956a119.269,119.269,0,0,0-13.984-.011c-3.618.2-4.7-1.312-4.478-4.681.206-3.151.041-6.327.043-9.492C330.937,246.047,330.938,246.047,338.1,246.008Z" fill="#ffcfa3"/>
    <path id="Path_281" data-name="Path 281" d="M331.228,292.455c-.215-5.237-.145-10.058-.348-14.868-.132-3.12.836-4.6,4.2-4.473,4.977.188,9.971.161,14.95.008,3.06-.1,4.121,1.154,4.008,4.127-.163,4.314.094,8.646-.132,12.954-.063,1.2-1.2,3.357-1.843,3.355C345.176,293.529,338.286,293.155,331.228,292.455Z" fill="#ffd1a7"/>
    <path id="Path_282" data-name="Path 282" d="M330.931,230.022c.011-8.088.011-8.089,7.413-8.091,3.981,0,7.966.1,11.942-.027,2.829-.094,3.623,1.146,3.758,3.846.664,13.323.733,13.319-12.675,13.319-.664,0-1.328.006-1.991,0C329.857,238.969,331.036,240.124,330.931,230.022Z" fill="#ffcfa3"/>
  </g>
</svg>
